solid OpenSCAD_Model
  facet normal 0 -1 0
    outer loop
      vertex 0 0 0
      vertex 39.1 0 3.1999999999999997
      vertex 1.6 0 4.8
    endloop
  endfacet
  facet normal 0 -1 0
    outer loop
      vertex 0 0 0
      vertex 1.6 0 4.8
      vertex 0 0 118.8
    endloop
  endfacet
  facet normal 0 -1 0
    outer loop
      vertex 1.6 0 4.8
      vertex 39.1 0 3.1999999999999997
      vertex 39.1 0 4.8
    endloop
  endfacet
  facet normal 0 -1 0
    outer loop
      vertex 0 0 0
      vertex 95.2 0 0
      vertex 39.1 0 3.1999999999999997
    endloop
  endfacet
  facet normal 0 -1 0
    outer loop
      vertex 0 0 118.8
      vertex 1.6 0 4.8
      vertex 1.6 0 118.8
    endloop
  endfacet
  facet normal -1 0 0
    outer loop
      vertex 0 0 0
      vertex 0 0 118.8
      vertex 0 35 118.8
    endloop
  endfacet
  facet normal 0 0 1
    outer loop
      vertex 0 0 118.8
      vertex 1.6 0 118.8
      vertex 1.6 35 118.8
    endloop
  endfacet
  facet normal -1 0 0
    outer loop
      vertex 0 0 0
      vertex 0 35 118.8
      vertex 0 35 0
    endloop
  endfacet
  facet normal 0 1 0
    outer loop
      vertex 0 35 0
      vertex 1.6 35 4.8
      vertex 39.1 35 4.8
    endloop
  endfacet
  facet normal 0 1 0
    outer loop
      vertex 0 35 0
      vertex 0 35 118.8
      vertex 1.6 35 4.8
    endloop
  endfacet
  facet normal 0 0 -1
    outer loop
      vertex 0 0 0
      vertex 0 35 0
      vertex 95.2 35 0
    endloop
  endfacet
  facet normal 0 1 0
    outer loop
      vertex 0 35 0
      vertex 39.1 35 4.8
      vertex 39.1 35 3.1999999999999997
    endloop
  endfacet
  facet normal 0 1 0
    outer loop
      vertex 0 35 0
      vertex 39.1 35 3.1999999999999997
      vertex 95.2 35 0
    endloop
  endfacet
  facet normal 0 0 1
    outer loop
      vertex 0 0 118.8
      vertex 1.6 35 118.8
      vertex 0 35 118.8
    endloop
  endfacet
  facet normal 0 1 0
    outer loop
      vertex 0 35 118.8
      vertex 1.6 35 118.8
      vertex 1.6 35 4.8
    endloop
  endfacet
  facet normal 0 -1 0
    outer loop
      vertex 95.2 0 0
      vertex 56.1 0 3.1999999999999997
      vertex 39.1 0 3.1999999999999997
    endloop
  endfacet
  facet normal 0 -1 0
    outer loop
      vertex 95.2 0 0
      vertex 56.1 0 4.8
      vertex 56.1 0 3.1999999999999997
    endloop
  endfacet
  facet normal 0 0 -1
    outer loop
      vertex 0 0 0
      vertex 95.2 35 0
      vertex 95.2 0 0
    endloop
  endfacet
  facet normal 0 -1 0
    outer loop
      vertex 95.2 0 0
      vertex 93.6 0 4.8
      vertex 56.1 0 4.8
    endloop
  endfacet
  facet normal 0 -1 0
    outer loop
      vertex 95.2 0 0
      vertex 95.2 0 118.8
      vertex 93.6 0 4.8
    endloop
  endfacet
  facet normal 1 0 0
    outer loop
      vertex 95.2 0 0
      vertex 95.2 35 0
      vertex 95.2 0 118.8
    endloop
  endfacet
  facet normal 0 -1 0
    outer loop
      vertex 95.2 0 118.8
      vertex 93.6 0 118.8
      vertex 93.6 0 4.8
    endloop
  endfacet
  facet normal 0 0 1
    outer loop
      vertex 95.2 0 118.8
      vertex 95.2 35 118.8
      vertex 93.6 0 118.8
    endloop
  endfacet
  facet normal 0 1 0
    outer loop
      vertex 95.2 35 0
      vertex 39.1 35 3.1999999999999997
      vertex 56.1 35 3.1999999999999997
    endloop
  endfacet
  facet normal 0 1 0
    outer loop
      vertex 93.6 35 4.8
      vertex 56.1 35 3.1999999999999997
      vertex 56.1 35 4.8
    endloop
  endfacet
  facet normal 0 1 0
    outer loop
      vertex 95.2 35 0
      vertex 56.1 35 3.1999999999999997
      vertex 93.6 35 4.8
    endloop
  endfacet
  facet normal 0 1 0
    outer loop
      vertex 95.2 35 0
      vertex 93.6 35 4.8
      vertex 95.2 35 118.8
    endloop
  endfacet
  facet normal 1 0 0
    outer loop
      vertex 95.2 0 118.8
      vertex 95.2 35 0
      vertex 95.2 35 118.8
    endloop
  endfacet
  facet normal 0 0 1
    outer loop
      vertex 95.2 35 118.8
      vertex 93.6 35 118.8
      vertex 93.6 0 118.8
    endloop
  endfacet
  facet normal 0 1 0
    outer loop
      vertex 95.2 35 118.8
      vertex 93.6 35 4.8
      vertex 93.6 35 118.8
    endloop
  endfacet
  facet normal 1 0 0
    outer loop
      vertex 1.6 0 4.8
      vertex 1.6 35 4.8
      vertex 1.6 0 118.8
    endloop
  endfacet
  facet normal 0 0 1
    outer loop
      vertex 1.6 0 4.8
      vertex 39.1 0 4.8
      vertex 39.1 35 4.8
    endloop
  endfacet
  facet normal 0 0 1
    outer loop
      vertex 1.6 0 4.8
      vertex 39.1 35 4.8
      vertex 1.6 35 4.8
    endloop
  endfacet
  facet normal 1 0 0
    outer loop
      vertex 1.6 35 4.8
      vertex 1.6 35 118.8
      vertex 1.6 0 118.8
    endloop
  endfacet
  facet normal 0 0 1
    outer loop
      vertex 56.1 0 4.8
      vertex 93.6 0 4.8
      vertex 93.6 35 4.8
    endloop
  endfacet
  facet normal -1 0 0
    outer loop
      vertex 93.6 0 4.8
      vertex 93.6 0 118.8
      vertex 93.6 35 118.8
    endloop
  endfacet
  facet normal 0 0 1
    outer loop
      vertex 93.6 35 4.8
      vertex 56.1 35 4.8
      vertex 56.1 0 4.8
    endloop
  endfacet
  facet normal -1 0 0
    outer loop
      vertex 93.6 0 4.8
      vertex 93.6 35 118.8
      vertex 93.6 35 4.8
    endloop
  endfacet
  facet normal 1 0 0
    outer loop
      vertex 39.1 0 4.8
      vertex 39.1 0 3.1999999999999997
      vertex 39.1 35 3.1999999999999997
    endloop
  endfacet
  facet normal 1 0 0
    outer loop
      vertex 39.1 35 4.8
      vertex 39.1 0 4.8
      vertex 39.1 35 3.1999999999999997
    endloop
  endfacet
  facet normal 0 0 1
    outer loop
      vertex 39.1 35 3.1999999999999997
      vertex 39.1 0 3.1999999999999997
      vertex 56.1 35 3.1999999999999997
    endloop
  endfacet
  facet normal 0 0 1
    outer loop
      vertex 56.1 35 3.1999999999999997
      vertex 39.1 0 3.1999999999999997
      vertex 56.1 0 3.1999999999999997
    endloop
  endfacet
  facet normal -1 0 0
    outer loop
      vertex 56.1 0 3.1999999999999997
      vertex 56.1 0 4.8
      vertex 56.1 35 4.8
    endloop
  endfacet
  facet normal -1 0 0
    outer loop
      vertex 56.1 35 3.1999999999999997
      vertex 56.1 0 3.1999999999999997
      vertex 56.1 35 4.8
    endloop
  endfacet
endsolid OpenSCAD_Model
