solid OpenSCAD_Model
  facet normal -1 0 0
    outer loop
      vertex 2.5 2.6 3
      vertex 2.5 2.6 3.6
      vertex 2.5 52 3.6
    endloop
  endfacet
  facet normal 0 0 1
    outer loop
      vertex 2.5 2.6 3.6
      vertex 4 2.6 3.6
      vertex 2.5 52 3.6
    endloop
  endfacet
  facet normal 0 0 1
    outer loop
      vertex 4 2.6 3.6
      vertex 4 43.36 3.6
      vertex 2.5 52 3.6
    endloop
  endfacet
  facet normal -1 0 0
    outer loop
      vertex 2.5 2.6 3
      vertex 2.5 52 3.6
      vertex 2.5 52 3
    endloop
  endfacet
  facet normal 0 0 1
    outer loop
      vertex 4 43.36 3.6
      vertex 8.5 52 3.6
      vertex 2.5 52 3.6
    endloop
  endfacet
  facet normal 0 1 0
    outer loop
      vertex 2.5 52 3
      vertex 2.5 52 3.6
      vertex 8.5 52 3.6
    endloop
  endfacet
  facet normal 0 0 1
    outer loop
      vertex 4 43.36 3.6
      vertex 8.5 43.36 3.6
      vertex 8.5 52 3.6
    endloop
  endfacet
  facet normal 1 0 0
    outer loop
      vertex 8.5 43.36 3.6
      vertex 8.5 44.3 3
      vertex 8.5 52 3
    endloop
  endfacet
  facet normal 1 0 0
    outer loop
      vertex 8.5 43.36 3.6
      vertex 8.5 52 3
      vertex 8.5 52 3.6
    endloop
  endfacet
  facet normal 0 1 0
    outer loop
      vertex 2.5 52 3
      vertex 8.5 52 3.6
      vertex 8.5 52 3
    endloop
  endfacet
  facet normal 0 0 1
    outer loop
      vertex 86.8 2.6 3.6
      vertex 88.3 2.6 3.6
      vertex 86.8 43.36 3.6
    endloop
  endfacet
  facet normal 1 0 0
    outer loop
      vertex 88.3 2.6 3
      vertex 88.3 52 3
      vertex 88.3 2.6 3.6
    endloop
  endfacet
  facet normal 0 0 1
    outer loop
      vertex 88.3 2.6 3.6
      vertex 88.3 52 3.6
      vertex 86.8 43.36 3.6
    endloop
  endfacet
  facet normal 1 0 0
    outer loop
      vertex 88.3 2.6 3.6
      vertex 88.3 52 3
      vertex 88.3 52 3.6
    endloop
  endfacet
  facet normal -1 0 0
    outer loop
      vertex 82.3 43.36 3.6
      vertex 82.3 52 3.6
      vertex 82.3 44.3 3
    endloop
  endfacet
  facet normal -1 0 0
    outer loop
      vertex 82.3 44.3 3
      vertex 82.3 52 3.6
      vertex 82.3 52 3
    endloop
  endfacet
  facet normal 0 0 1
    outer loop
      vertex 82.3 43.36 3.6
      vertex 88.3 52 3.6
      vertex 82.3 52 3.6
    endloop
  endfacet
  facet normal 0 1 0
    outer loop
      vertex 82.3 52 3
      vertex 82.3 52 3.6
      vertex 88.3 52 3.6
    endloop
  endfacet
  facet normal 0 0 1
    outer loop
      vertex 82.3 43.36 3.6
      vertex 86.8 43.36 3.6
      vertex 88.3 52 3.6
    endloop
  endfacet
  facet normal 0 1 0
    outer loop
      vertex 82.3 52 3
      vertex 88.3 52 3.6
      vertex 88.3 52 3
    endloop
  endfacet
  facet normal 1 0 0
    outer loop
      vertex 33 2.6 3
      vertex 33 3.6 3
      vertex 33 3.6 24.4
    endloop
  endfacet
  facet normal 1 0 0
    outer loop
      vertex 33 2.6 3
      vertex 33 3.6 24.4
      vertex 33 2.6 24.4
    endloop
  endfacet
  facet normal -1 0 0
    outer loop
      vertex 29.8 2.6 3
      vertex 29.8 2.6 24.4
      vertex 29.8 52 24.4
    endloop
  endfacet
  facet normal 0 0 1
    outer loop
      vertex 29.8 2.6 24.4
      vertex 33 2.6 24.4
      vertex 29.8 52 24.4
    endloop
  endfacet
  facet normal 0 0 1
    outer loop
      vertex 33 2.6 24.4
      vertex 33 3.6 24.4
      vertex 29.8 52 24.4
    endloop
  endfacet
  facet normal -1 0 0
    outer loop
      vertex 29.8 2.6 3
      vertex 29.8 52 24.4
      vertex 29.8 52 3
    endloop
  endfacet
  facet normal 0 0 1
    outer loop
      vertex 29.8 52 24.4
      vertex 33 3.6 24.4
      vertex 33 46 24.4
    endloop
  endfacet
  facet normal 1 0 0
    outer loop
      vertex 33 49 3
      vertex 33 49 24.4
      vertex 33 46 3
    endloop
  endfacet
  facet normal 1 0 0
    outer loop
      vertex 33 49 24.4
      vertex 33 46 24.4
      vertex 33 46 3
    endloop
  endfacet
  facet normal 0 1 0
    outer loop
      vertex 29.8 52 3
      vertex 29.8 52 24.4
      vertex 33 52 24.4
    endloop
  endfacet
  facet normal 0 1 0
    outer loop
      vertex 29.8 52 3
      vertex 33 52 24.4
      vertex 33 52 3
    endloop
  endfacet
  facet normal 0 0 1
    outer loop
      vertex 29.8 52 24.4
      vertex 33 46 24.4
      vertex 33 49 24.4
    endloop
  endfacet
  facet normal 0 0 1
    outer loop
      vertex 29.8 52 24.4
      vertex 33 49 24.4
      vertex 33 52 24.4
    endloop
  endfacet
  facet normal -1 0 0
    outer loop
      vertex 57.8 2.6 3
      vertex 57.8 2.6 24.4
      vertex 57.8 3.6 3
    endloop
  endfacet
  facet normal -1 0 0
    outer loop
      vertex 57.8 2.6 24.4
      vertex 57.8 3.6 24.4
      vertex 57.8 3.6 3
    endloop
  endfacet
  facet normal 1 0 0
    outer loop
      vertex 61 2.6 3
      vertex 61 51.631147540983605 3
      vertex 61 2.6 24.4
    endloop
  endfacet
  facet normal 0 0 1
    outer loop
      vertex 57.8 2.6 24.4
      vertex 57.994331983805665 49 24.4
      vertex 57.8 3.6 24.4
    endloop
  endfacet
  facet normal 0 0 1
    outer loop
      vertex 57.8 2.6 24.4
      vertex 61 2.6 24.4
      vertex 57.994331983805665 49 24.4
    endloop
  endfacet
  facet normal 1 0 0
    outer loop
      vertex 61 2.6 24.4
      vertex 61 51.631147540983605 3
      vertex 61 49 24.4
    endloop
  endfacet
  facet normal 0 0 1
    outer loop
      vertex 57.994331983805665 49 24.4
      vertex 57.8 46 24.4
      vertex 57.8 3.6 24.4
    endloop
  endfacet
  facet normal 0 0 1
    outer loop
      vertex 61 2.6 24.4
      vertex 61 49 24.4
      vertex 57.994331983805665 49 24.4
    endloop
  endfacet
  facet normal -1 0 0
    outer loop
      vertex 57.8 49 3
      vertex 57.8 46 3
      vertex 57.8 46 24.4
    endloop
  endfacet
  facet normal -1 0 0
    outer loop
      vertex 57.8 49 3
      vertex 57.8 46 24.4
      vertex 57.8 49 24.4
    endloop
  endfacet
  facet normal 0 0 1
    outer loop
      vertex 57.8 49 24.4
      vertex 57.8 46 24.4
      vertex 57.994331983805665 49 24.4
    endloop
  endfacet
  facet normal 0 0 1
    outer loop
      vertex 57.994331983805665 49 24.4
      vertex 61 49 24.4
      vertex 57.975493575681604 49.290817925415226 24.4
    endloop
  endfacet
  facet normal -1 0 0
    outer loop
      vertex 4 2.6 3.6
      vertex 4 2.6 29.617021276595743
      vertex 4 43.36 3.6
    endloop
  endfacet
  facet normal 0 0.5380354529218649 0.8429222095775885
    outer loop
      vertex 4 2.6 29.617021276595743
      vertex 12 2.6 29.617021276595743
      vertex 4 43.36 3.6
    endloop
  endfacet
  facet normal 1 0 0
    outer loop
      vertex 12 2.6 3
      vertex 12 44.3 3
      vertex 12 2.6 29.617021276595743
    endloop
  endfacet
  facet normal 4.1289707563808533e-16 0.5380354529218648 0.8429222095775882
    outer loop
      vertex 12 2.6 29.617021276595743
      vertex 8.5 43.36 3.6
      vertex 4 43.36 3.6
    endloop
  endfacet
  facet normal 3.205062231563483e-16 0.5380354529218648 0.8429222095775883
    outer loop
      vertex 12 2.6 29.617021276595743
      vertex 12 44.3 3
      vertex 8.5 43.36 3.6
    endloop
  endfacet
  facet normal 1.3653470809108628e-18 0.5380354529218659 0.8429222095775877
    outer loop
      vertex 8.5 43.36 3.6
      vertex 12 44.3 3
      vertex 8.5 44.3 3
    endloop
  endfacet
  facet normal -1 0 0
    outer loop
      vertex 78.8 2.6 3
      vertex 78.8 2.6 29.617021276595743
      vertex 78.8 44.3 3
    endloop
  endfacet
  facet normal 1 0 0
    outer loop
      vertex 86.8 2.6 3.6
      vertex 86.8 43.36 3.6
      vertex 86.8 2.6 29.617021276595743
    endloop
  endfacet
  facet normal 0 0.5380354529218649 0.8429222095775885
    outer loop
      vertex 78.8 2.6 29.617021276595743
      vertex 86.8 2.6 29.617021276595743
      vertex 82.3 43.36 3.6
    endloop
  endfacet
  facet normal -3.655244776674667e-16 0.5380354529218648 0.8429222095775883
    outer loop
      vertex 78.8 2.6 29.617021276595743
      vertex 82.3 43.36 3.6
      vertex 78.8 44.3 3
    endloop
  endfacet
  facet normal 4.1289707563808533e-16 0.5380354529218648 0.8429222095775882
    outer loop
      vertex 86.8 2.6 29.617021276595743
      vertex 86.8 43.36 3.6
      vertex 82.3 43.36 3.6
    endloop
  endfacet
  facet normal 0 0.5380354529218659 0.8429222095775877
    outer loop
      vertex 78.8 44.3 3
      vertex 82.3 43.36 3.6
      vertex 82.3 44.3 3
    endloop
  endfacet
  facet normal 0 1 0
    outer loop
      vertex 0 2.6 3
      vertex 2.5 2.6 3.6
      vertex 2.5 2.6 3
    endloop
  endfacet
  facet normal 0 1 0
    outer loop
      vertex 0 2.6 3
      vertex 4 2.6 29.617021276595743
      vertex 2.5 2.6 3.6
    endloop
  endfacet
  facet normal 0 1 0
    outer loop
      vertex 2.5 2.6 3.6
      vertex 4 2.6 29.617021276595743
      vertex 4 2.6 3.6
    endloop
  endfacet
  facet normal 0 1 0
    outer loop
      vertex 4 2.6 29.617021276595743
      vertex 10 2.6 30.4
      vertex 12 2.6 29.617021276595743
    endloop
  endfacet
  facet normal 0 -1 0
    outer loop
      vertex 0 0 3
      vertex 38.65 0 3.2
      vertex 10 0 30.4
    endloop
  endfacet
  facet normal 0 1 0
    outer loop
      vertex 12 2.6 3
      vertex 12 2.6 29.617021276595743
      vertex 29.8 2.6 24.4
    endloop
  endfacet
  facet normal -1 0 0
    outer loop
      vertex 0 0 3
      vertex 0 2.6 128
      vertex 0 2.6 3
    endloop
  endfacet
  facet normal 0 1 0
    outer loop
      vertex 0 2.6 3
      vertex 0 2.6 128
      vertex 4 2.6 29.617021276595743
    endloop
  endfacet
  facet normal 0 -1 0
    outer loop
      vertex 0 0 3
      vertex 10 0 30.4
      vertex 0 0 128
    endloop
  endfacet
  facet normal 0 1 0
    outer loop
      vertex 4 2.6 29.617021276595743
      vertex 0 2.6 128
      vertex 10 2.6 30.4
    endloop
  endfacet
  facet normal 0 1 0
    outer loop
      vertex 12 2.6 3
      vertex 29.8 2.6 24.4
      vertex 29.8 2.6 3
    endloop
  endfacet
  facet normal 0 -1 0
    outer loop
      vertex 0 0 3
      vertex 52.15 0 3.2
      vertex 38.65 0 3.2
    endloop
  endfacet
  facet normal 0 -1 0
    outer loop
      vertex 10 0 30.4
      vertex 38.65 0 3.2
      vertex 38.65 0 6.2
    endloop
  endfacet
  facet normal 0 -1 0
    outer loop
      vertex 38.65 0 6.2
      vertex 52.15 0 6.2
      vertex 10 0 30.4
    endloop
  endfacet
  facet normal 0 1 0
    outer loop
      vertex 33 2.6 3
      vertex 38.65 2.6 6.2
      vertex 38.65 2.6 3.2
    endloop
  endfacet
  facet normal 0 1 0
    outer loop
      vertex 33 2.6 3
      vertex 38.65 2.6 3.2
      vertex 52.15 2.6 3.2
    endloop
  endfacet
  facet normal 0 1 0
    outer loop
      vertex 33 2.6 3
      vertex 33 2.6 24.4
      vertex 57.8 2.6 24.4
    endloop
  endfacet
  facet normal 0 1 0
    outer loop
      vertex 33 2.6 3
      vertex 57.8 2.6 24.4
      vertex 38.65 2.6 6.2
    endloop
  endfacet
  facet normal 0 1 0
    outer loop
      vertex 12 2.6 29.617021276595743
      vertex 10 2.6 30.4
      vertex 80.8 2.6 30.4
    endloop
  endfacet
  facet normal 0 1 0
    outer loop
      vertex 12 2.6 29.617021276595743
      vertex 80.8 2.6 30.4
      vertex 29.8 2.6 24.4
    endloop
  endfacet
  facet normal -1 0 0
    outer loop
      vertex 0 0 3
      vertex 0 0 128
      vertex 0 2.6 128
    endloop
  endfacet
  facet normal 0 -1 0
    outer loop
      vertex 0 0 128
      vertex 10 0 30.4
      vertex 10 0 114
    endloop
  endfacet
  facet normal 0 1 0
    outer loop
      vertex 0 2.6 128
      vertex 10 2.6 114
      vertex 10 2.6 30.4
    endloop
  endfacet
  facet normal 0 0 1
    outer loop
      vertex 0 0 128
      vertex 29.4 1.2643139440743911 128
      vertex 0 2.6 128
    endloop
  endfacet
  facet normal 0 1 0
    outer loop
      vertex 0 2.6 128
      vertex 29.4 2.6 125
      vertex 10 2.6 114
    endloop
  endfacet
  facet normal 0 1 0
    outer loop
      vertex 0 2.6 128
      vertex 29.4 2.6 128
      vertex 29.4 2.6 125
    endloop
  endfacet
  facet normal 0 0 1
    outer loop
      vertex 0 2.6 128
      vertex 29.4 1.2643139440743911 128
      vertex 29.4 2.6 128
    endloop
  endfacet
  facet normal 0 -1 0
    outer loop
      vertex 0 0 128
      vertex 10 0 114
      vertex 80.8 0 114
    endloop
  endfacet
  facet normal 0 1 0
    outer loop
      vertex 29.4 2.6 125
      vertex 61.4 2.6 125
      vertex 10 2.6 114
    endloop
  endfacet
  facet normal 0 0 1
    outer loop
      vertex 0 0 128
      vertex 90.8 0 128
      vertex 29.4 1.2643139440743911 128
    endloop
  endfacet
  facet normal 0 -1 0
    outer loop
      vertex 0 0 3
      vertex 90.8 0 3
      vertex 52.15 0 3.2
    endloop
  endfacet
  facet normal 0 1 0
    outer loop
      vertex 33 2.6 3
      vertex 52.15 2.6 3.2
      vertex 57.8 2.6 3
    endloop
  endfacet
  facet normal 0 1 0
    outer loop
      vertex 57.8 2.6 24.4
      vertex 52.15 2.6 6.2
      vertex 38.65 2.6 6.2
    endloop
  endfacet
  facet normal 0 1 0
    outer loop
      vertex 57.8 2.6 3
      vertex 52.15 2.6 3.2
      vertex 52.15 2.6 6.2
    endloop
  endfacet
  facet normal 0 1 0
    outer loop
      vertex 57.8 2.6 3
      vertex 52.15 2.6 6.2
      vertex 57.8 2.6 24.4
    endloop
  endfacet
  facet normal 0 -1 0
    outer loop
      vertex 80.8 0 30.4
      vertex 10 0 30.4
      vertex 52.15 0 6.2
    endloop
  endfacet
  facet normal 0 1 0
    outer loop
      vertex 29.8 2.6 24.4
      vertex 80.8 2.6 30.4
      vertex 33 2.6 24.4
    endloop
  endfacet
  facet normal 0 -1 0
    outer loop
      vertex 0 0 0
      vertex 90.8 0 0
      vertex 90.8 0 2.931297709923664
    endloop
  endfacet
  facet normal 0 -1 0
    outer loop
      vertex 80.8 0 30.4
      vertex 52.15 0 6.2
      vertex 52.15 0 3.2
    endloop
  endfacet
  facet normal 0 1 0
    outer loop
      vertex 33 2.6 24.4
      vertex 80.8 2.6 30.4
      vertex 57.8 2.6 24.4
    endloop
  endfacet
  facet normal 0 1 0
    outer loop
      vertex 61 2.6 3
      vertex 61 2.6 24.4
      vertex 78.8 2.6 29.617021276595743
    endloop
  endfacet
  facet normal 0 1 0
    outer loop
      vertex 57.8 2.6 24.4
      vertex 80.8 2.6 30.4
      vertex 61 2.6 24.4
    endloop
  endfacet
  facet normal 0 1 0
    outer loop
      vertex 61 2.6 3
      vertex 78.8 2.6 29.617021276595743
      vertex 78.8 2.6 3
    endloop
  endfacet
  facet normal 0 -1 0
    outer loop
      vertex 90.8 0 3
      vertex 80.8 0 30.4
      vertex 52.15 0 3.2
    endloop
  endfacet
  facet normal 0 1 0
    outer loop
      vertex 61 2.6 24.4
      vertex 80.8 2.6 30.4
      vertex 78.8 2.6 29.617021276595743
    endloop
  endfacet
  facet normal 1 0 0
    outer loop
      vertex 90.8 0 0
      vertex 90.8 2.4761904761904763 0
      vertex 90.8 0 2.931297709923664
    endloop
  endfacet
  facet normal 1 0 0
    outer loop
      vertex 90.8 0 3
      vertex 90.8 2.542041454829879 2.8533437622213533
      vertex 90.8 2.5390625 3
    endloop
  endfacet
  facet normal 0 1 0
    outer loop
      vertex 88.3 2.6 3
      vertex 88.3 2.6 3.6
      vertex 90.8 2.6 3
    endloop
  endfacet
  facet normal 0 1 0
    outer loop
      vertex 86.8 2.6 3.6
      vertex 86.8 2.6 29.617021276595743
      vertex 88.3 2.6 3.6
    endloop
  endfacet
  facet normal 0 1 0
    outer loop
      vertex 88.3 2.6 3.6
      vertex 86.8 2.6 29.617021276595743
      vertex 90.8 2.6 3
    endloop
  endfacet
  facet normal 0 1 0
    outer loop
      vertex 78.8 2.6 29.617021276595743
      vertex 80.8 2.6 30.4
      vertex 86.8 2.6 29.617021276595743
    endloop
  endfacet
  facet normal 0 -1 0
    outer loop
      vertex 90.8 0 3
      vertex 80.8 0 114
      vertex 80.8 0 30.4
    endloop
  endfacet
  facet normal 1 0 0
    outer loop
      vertex 90.8 0 3
      vertex 90.8 2.5390625 3
      vertex 90.8 0 128
    endloop
  endfacet
  facet normal 1 0 0
    outer loop
      vertex 90.8 2.5390625 3
      vertex 90.8 2.6 3
      vertex 90.8 2.6 128
    endloop
  endfacet
  facet normal 0 1 0
    outer loop
      vertex 90.8 2.6 3
      vertex 86.8 2.6 29.617021276595743
      vertex 90.8 2.6 128
    endloop
  endfacet
  facet normal 0 1 0
    outer loop
      vertex 86.8 2.6 29.617021276595743
      vertex 80.8 2.6 30.4
      vertex 80.8 2.6 114
    endloop
  endfacet
  facet normal 0 1 0
    outer loop
      vertex 61.4 2.6 125
      vertex 80.8 2.6 114
      vertex 10 2.6 114
    endloop
  endfacet
  facet normal 0 -1 0
    outer loop
      vertex 0 0 128
      vertex 80.8 0 114
      vertex 90.8 0 128
    endloop
  endfacet
  facet normal 0 0 1
    outer loop
      vertex 29.4 1.2643139440743911 128
      vertex 90.8 0 128
      vertex 61.4 1.2643139440743874 128
    endloop
  endfacet
  facet normal 0 -1 0
    outer loop
      vertex 90.8 0 3
      vertex 90.8 0 128
      vertex 80.8 0 114
    endloop
  endfacet
  facet normal 0 1 0
    outer loop
      vertex 86.8 2.6 29.617021276595743
      vertex 80.8 2.6 114
      vertex 90.8 2.6 128
    endloop
  endfacet
  facet normal 1 0 0
    outer loop
      vertex 90.8 2.5390625 3
      vertex 90.8 2.6 128
      vertex 90.8 0 128
    endloop
  endfacet
  facet normal 0 1 0
    outer loop
      vertex 61.4 2.6 125
      vertex 61.4 2.6 128
      vertex 90.8 2.6 128
    endloop
  endfacet
  facet normal 0 0 1
    outer loop
      vertex 61.4 1.2643139440743874 128
      vertex 90.8 2.6 128
      vertex 61.4 2.6 128
    endloop
  endfacet
  facet normal 0 1 0
    outer loop
      vertex 61.4 2.6 125
      vertex 90.8 2.6 128
      vertex 80.8 2.6 114
    endloop
  endfacet
  facet normal 0 0 1
    outer loop
      vertex 61.4 1.2643139440743874 128
      vertex 90.8 0 128
      vertex 90.8 2.6 128
    endloop
  endfacet
  facet normal -1 0 0
    outer loop
      vertex 0 0 0
      vertex 0 0 3
      vertex 0 2.6 3
    endloop
  endfacet
  facet normal -1 0 0
    outer loop
      vertex 0 0 0
      vertex 0 2.6 3
      vertex 0 52 3
    endloop
  endfacet
  facet normal 0 0 1
    outer loop
      vertex 0 2.6 3
      vertex 2.5 2.6 3
      vertex 0 52 3
    endloop
  endfacet
  facet normal 0 -1 0
    outer loop
      vertex 0 0 0
      vertex 90.8 0 3
      vertex 0 0 3
    endloop
  endfacet
  facet normal 0 0 1
    outer loop
      vertex 33 2.6 3
      vertex 57.8 2.6 3
      vertex 33 3.6 3
    endloop
  endfacet
  facet normal 0 0 1
    outer loop
      vertex 12 2.6 3
      vertex 29.8 2.6 3
      vertex 29.8 52 3
    endloop
  endfacet
  facet normal -1 0 0
    outer loop
      vertex 0 0 0
      vertex 0 52 3
      vertex 0 52 0
    endloop
  endfacet
  facet normal 0 0 1
    outer loop
      vertex 2.5 2.6 3
      vertex 2.5 52 3
      vertex 0 52 3
    endloop
  endfacet
  facet normal 0 0 1
    outer loop
      vertex 12 2.6 3
      vertex 29.8 52 3
      vertex 12 44.3 3
    endloop
  endfacet
  facet normal 0 0 1
    outer loop
      vertex 8.5 44.3 3
      vertex 12 44.3 3
      vertex 8.5 52 3
    endloop
  endfacet
  facet normal 0 0 1
    outer loop
      vertex 8.5 52 3
      vertex 12 44.3 3
      vertex 29.8 52 3
    endloop
  endfacet
  facet normal 0 0 -1
    outer loop
      vertex 0 0 0
      vertex 0 52 0
      vertex 90.8 52 0
    endloop
  endfacet
  facet normal 0 1 0
    outer loop
      vertex 0 52 0
      vertex 0 52 3
      vertex 90.8 52 0
    endloop
  endfacet
  facet normal 0 1 0
    outer loop
      vertex 0 52 3
      vertex 2.5 52 3
      vertex 90.8 52 0
    endloop
  endfacet
  facet normal 0 1 0
    outer loop
      vertex 2.5 52 3
      vertex 8.5 52 3
      vertex 90.8 52 0
    endloop
  endfacet
  facet normal 0 0 1
    outer loop
      vertex 33 49 3
      vertex 33 46 3
      vertex 45.67927927927928 25.27747747747748 3
    endloop
  endfacet
  facet normal 0 1 0
    outer loop
      vertex 8.5 52 3
      vertex 29.8 52 3
      vertex 90.8 52 0
    endloop
  endfacet
  facet normal 0 0 1
    outer loop
      vertex 57.8 2.6 3
      vertex 57.8 3.6 3
      vertex 33 3.6 3
    endloop
  endfacet
  facet normal 0 -1 0
    outer loop
      vertex 0 0 0
      vertex 90.8 0 2.931297709923664
      vertex 90.8 0 3
    endloop
  endfacet
  facet normal 0 0 -1
    outer loop
      vertex 0 0 0
      vertex 90.8 2.4761904761904763 0
      vertex 90.8 0 0
    endloop
  endfacet
  facet normal 0 0 -1
    outer loop
      vertex 0 0 0
      vertex 90.8 52 0
      vertex 90.8 2.4761904761904763 0
    endloop
  endfacet
  facet normal 0 0 1
    outer loop
      vertex 61 2.6 3
      vertex 78.8 2.6 3
      vertex 61 51.631147540983605 3
    endloop
  endfacet
  facet normal 1 0 0
    outer loop
      vertex 90.8 0 3
      vertex 90.8 0 2.931297709923664
      vertex 90.8 2.4761904761904763 0
    endloop
  endfacet
  facet normal 1 0 0
    outer loop
      vertex 90.8 0 3
      vertex 90.8 2.4761904761904763 0
      vertex 90.8 2.542041454829879 2.8533437622213533
    endloop
  endfacet
  facet normal 1 0 0
    outer loop
      vertex 90.8 2.542041454829879 2.8533437622213533
      vertex 90.8 2.6 3
      vertex 90.8 2.5390625 3
    endloop
  endfacet
  facet normal 0 0 1
    outer loop
      vertex 88.3 2.6 3
      vertex 90.8 2.6 3
      vertex 88.3 52 3
    endloop
  endfacet
  facet normal 1 0 0
    outer loop
      vertex 90.8 2.4761904761904763 0
      vertex 90.8 52 0
      vertex 90.8 2.542041454829879 2.8533437622213533
    endloop
  endfacet
  facet normal 1 0 0
    outer loop
      vertex 90.8 2.542041454829879 2.8533437622213533
      vertex 90.8 52 3
      vertex 90.8 2.6 3
    endloop
  endfacet
  facet normal 0 0 1
    outer loop
      vertex 33 49 3
      vertex 45.67927927927928 25.27747747747748 3
      vertex 57.8 46 3
    endloop
  endfacet
  facet normal 0 0 1
    outer loop
      vertex 33 49 3
      vertex 57.8 46 3
      vertex 57.8 49 3
    endloop
  endfacet
  facet normal 0 1 0
    outer loop
      vertex 29.8 52 3
      vertex 33 52 3
      vertex 90.8 52 0
    endloop
  endfacet
  facet normal 0 1 0
    outer loop
      vertex 33 52 3
      vertex 61 52 3
      vertex 90.8 52 0
    endloop
  endfacet
  facet normal 0 0 1
    outer loop
      vertex 78.8 2.6 3
      vertex 78.8 44.3 3
      vertex 61 51.631147540983605 3
    endloop
  endfacet
  facet normal 1 0 0
    outer loop
      vertex 90.8 2.542041454829879 2.8533437622213533
      vertex 90.8 52 0
      vertex 90.8 52 3
    endloop
  endfacet
  facet normal 0 0 1
    outer loop
      vertex 90.8 2.6 3
      vertex 90.8 52 3
      vertex 88.3 52 3
    endloop
  endfacet
  facet normal 0 0 1
    outer loop
      vertex 61 51.631147540983605 3
      vertex 82.3 52 3
      vertex 61 52 3
    endloop
  endfacet
  facet normal 0 0 1
    outer loop
      vertex 61 51.631147540983605 3
      vertex 78.8 44.3 3
      vertex 82.3 44.3 3
    endloop
  endfacet
  facet normal 0 0 1
    outer loop
      vertex 61 51.631147540983605 3
      vertex 82.3 44.3 3
      vertex 82.3 52 3
    endloop
  endfacet
  facet normal 0 1 0
    outer loop
      vertex 61 52 3
      vertex 82.3 52 3
      vertex 90.8 52 0
    endloop
  endfacet
  facet normal 0 1 0
    outer loop
      vertex 82.3 52 3
      vertex 88.3 52 3
      vertex 90.8 52 0
    endloop
  endfacet
  facet normal 0 1 0
    outer loop
      vertex 88.3 52 3
      vertex 90.8 52 3
      vertex 90.8 52 0
    endloop
  endfacet
  facet normal 0 -1 0
    outer loop
      vertex 33 49 3
      vertex 57.8 49 3
      vertex 33 49 24.4
    endloop
  endfacet
  facet normal 0 1 0
    outer loop
      vertex 33 52 3
      vertex 33 52 24.4
      vertex 61 52 24.4
    endloop
  endfacet
  facet normal 0 0 1
    outer loop
      vertex 33 49 24.4
      vertex 57.975493575681604 49.290817925415226 24.4
      vertex 33 52 24.4
    endloop
  endfacet
  facet normal 0 -1 0
    outer loop
      vertex 33 49 24.4
      vertex 57.8 49 3
      vertex 57.8 49 24.4
    endloop
  endfacet
  facet normal 0 1 0
    outer loop
      vertex 33 52 3
      vertex 61 52 24.4
      vertex 61 52 3
    endloop
  endfacet
  facet normal 0 0 1
    outer loop
      vertex 33 49 24.4
      vertex 57.8 49 24.4
      vertex 57.975493575681604 49.290817925415226 24.4
    endloop
  endfacet
  facet normal 0 0 1
    outer loop
      vertex 33 52 24.4
      vertex 57.975493575681604 49.290817925415226 24.4
      vertex 61 52 24.4
    endloop
  endfacet
  facet normal 1 0 0
    outer loop
      vertex 61 51.631147540983605 3
      vertex 61 52 3
      vertex 61 52 24.4
    endloop
  endfacet
  facet normal 1 0 0
    outer loop
      vertex 61 51.631147540983605 3
      vertex 61 52 24.4
      vertex 61 49 24.4
    endloop
  endfacet
  facet normal 0 0 1
    outer loop
      vertex 57.8 49 24.4
      vertex 57.994331983805665 49 24.4
      vertex 57.975493575681604 49.290817925415226 24.4
    endloop
  endfacet
  facet normal 0 0 1
    outer loop
      vertex 57.975493575681604 49.290817925415226 24.4
      vertex 61 49 24.4
      vertex 61 52 24.4
    endloop
  endfacet
  facet normal -1 0 0
    outer loop
      vertex 29.4 -5.193197887024242 148.8961517130621
      vertex 29.4 2.6 128
      vertex 29.4 1.2643139440743911 128
    endloop
  endfacet
  facet normal -1 0 0
    outer loop
      vertex 29.4 -7.568416076895005 147.83863644106503
      vertex 29.4 -5.193197887024242 148.8961517130621
      vertex 29.4 1.2643139440743911 128
    endloop
  endfacet
  facet normal -1 0 0
    outer loop
      vertex 29.4 2.6 125
      vertex 29.4 2.6 128
      vertex 29.4 4.975218189870763 126.05751527199708
    endloop
  endfacet
  facet normal -1 0 0
    outer loop
      vertex 29.4 -5.193197887024242 148.8961517130621
      vertex 29.4 4.975218189870763 126.05751527199708
      vertex 29.4 2.6 128
    endloop
  endfacet
  facet normal 0 -0.4067366430757941 0.9135454576426036
    outer loop
      vertex 29.4 -7.568416076895005 147.83863644106503
      vertex 61.4 -7.568416076895005 147.83863644106503
      vertex 29.4 -5.193197887024242 148.8961517130621
    endloop
  endfacet
  facet normal -9.880514139662857e-17 -0.913545457642601 -0.4067366430758
    outer loop
      vertex 29.4 -7.568416076895005 147.83863644106503
      vertex 29.4 1.2643139440743911 128
      vertex 61.4 1.2643139440743874 128
    endloop
  endfacet
  facet normal 1.4221216774199242e-18 0.4067366430757987 -0.9135454576426015
    outer loop
      vertex 29.4 2.6 125
      vertex 29.4 4.975218189870763 126.05751527199708
      vertex 61.4 4.975218189870763 126.05751527199708
    endloop
  endfacet
  facet normal 1.5975681618639524e-17 0.913545457642601 0.40673664307580026
    outer loop
      vertex 29.4 -5.193197887024242 148.8961517130621
      vertex 61.4 4.975218189870763 126.05751527199708
      vertex 29.4 4.975218189870763 126.05751527199708
    endloop
  endfacet
  facet normal 0 -0.4067366430757941 0.9135454576426036
    outer loop
      vertex 29.4 -5.193197887024242 148.8961517130621
      vertex 61.4 -7.568416076895005 147.83863644106503
      vertex 61.4 -5.193197887024242 148.8961517130621
    endloop
  endfacet
  facet normal 0 -0.913545457642601 -0.4067366430757998
    outer loop
      vertex 29.4 -7.568416076895005 147.83863644106503
      vertex 61.4 1.2643139440743874 128
      vertex 61.4 -7.568416076895005 147.83863644106503
    endloop
  endfacet
  facet normal 0 0.913545457642601 0.40673664307580026
    outer loop
      vertex 29.4 -5.193197887024242 148.8961517130621
      vertex 61.4 -5.193197887024242 148.8961517130621
      vertex 61.4 4.975218189870763 126.05751527199708
    endloop
  endfacet
  facet normal 0 0.4067366430757987 -0.9135454576426015
    outer loop
      vertex 29.4 2.6 125
      vertex 61.4 4.975218189870763 126.05751527199708
      vertex 61.4 2.6 125
    endloop
  endfacet
  facet normal 1 0 0
    outer loop
      vertex 61.4 -7.568416076895005 147.83863644106503
      vertex 61.4 1.2643139440743874 128
      vertex 61.4 2.6 128
    endloop
  endfacet
  facet normal 1 0 0
    outer loop
      vertex 61.4 -7.568416076895005 147.83863644106503
      vertex 61.4 2.6 128
      vertex 61.4 -5.193197887024242 148.8961517130621
    endloop
  endfacet
  facet normal 1 0 0
    outer loop
      vertex 61.4 2.6 125
      vertex 61.4 4.975218189870763 126.05751527199708
      vertex 61.4 2.6 128
    endloop
  endfacet
  facet normal 1 0 0
    outer loop
      vertex 61.4 -5.193197887024242 148.8961517130621
      vertex 61.4 2.6 128
      vertex 61.4 4.975218189870763 126.05751527199708
    endloop
  endfacet
  facet normal 0 1 0
    outer loop
      vertex 32 10.6 16.2
      vertex 32 10.6 17.4
      vertex 33 10.6 16.2
    endloop
  endfacet
  facet normal 0 1 0
    outer loop
      vertex 33 10.6 16.2
      vertex 32 10.6 17.4
      vertex 33 10.6 17.4
    endloop
  endfacet
  facet normal 1 0 0
    outer loop
      vertex 32 10.6 16.2
      vertex 32 14.6 17.4
      vertex 32 10.6 17.4
    endloop
  endfacet
  facet normal 0 0 -1
    outer loop
      vertex 32 10.6 17.4
      vertex 32 14.6 17.4
      vertex 33 10.6 17.4
    endloop
  endfacet
  facet normal 0 0 1
    outer loop
      vertex 32 10.6 16.2
      vertex 33 10.6 16.2
      vertex 33 14.6 16.2
    endloop
  endfacet
  facet normal 0 0 1
    outer loop
      vertex 32 10.6 16.2
      vertex 33 14.6 16.2
      vertex 32 14.6 16.2
    endloop
  endfacet
  facet normal 1 0 0
    outer loop
      vertex 32 10.6 16.2
      vertex 32 14.6 16.2
      vertex 32 14.6 17.4
    endloop
  endfacet
  facet normal 0 -1 0
    outer loop
      vertex 32 14.6 16.2
      vertex 33 14.6 17.4
      vertex 32 14.6 17.4
    endloop
  endfacet
  facet normal 0 0 -1
    outer loop
      vertex 33 10.6 17.4
      vertex 32 14.6 17.4
      vertex 33 14.6 17.4
    endloop
  endfacet
  facet normal 0 -1 0
    outer loop
      vertex 32 14.6 16.2
      vertex 33 14.6 16.2
      vertex 33 14.6 17.4
    endloop
  endfacet
  facet normal 0 1 0
    outer loop
      vertex 57.8 10.6 16.2
      vertex 57.8 10.6 17.4
      vertex 58.8 10.6 16.2
    endloop
  endfacet
  facet normal 0 1 0
    outer loop
      vertex 58.8 10.6 16.2
      vertex 57.8 10.6 17.4
      vertex 58.8 10.6 17.4
    endloop
  endfacet
  facet normal 0 0 -1
    outer loop
      vertex 57.8 10.6 17.4
      vertex 57.8 14.6 17.4
      vertex 58.8 10.6 17.4
    endloop
  endfacet
  facet normal 0 0 1
    outer loop
      vertex 57.8 10.6 16.2
      vertex 58.8 10.6 16.2
      vertex 58.8 14.6 16.2
    endloop
  endfacet
  facet normal -1 0 0
    outer loop
      vertex 58.8 10.6 16.2
      vertex 58.8 10.6 17.4
      vertex 58.8 14.6 16.2
    endloop
  endfacet
  facet normal 0 0 1
    outer loop
      vertex 57.8 10.6 16.2
      vertex 58.8 14.6 16.2
      vertex 57.8 14.6 16.2
    endloop
  endfacet
  facet normal 0 -1 0
    outer loop
      vertex 57.8 14.6 16.2
      vertex 58.8 14.6 17.4
      vertex 57.8 14.6 17.4
    endloop
  endfacet
  facet normal 0 0 -1
    outer loop
      vertex 58.8 10.6 17.4
      vertex 57.8 14.6 17.4
      vertex 58.8 14.6 17.4
    endloop
  endfacet
  facet normal -1 0 0
    outer loop
      vertex 58.8 10.6 17.4
      vertex 58.8 14.6 17.4
      vertex 58.8 14.6 16.2
    endloop
  endfacet
  facet normal 0 -1 0
    outer loop
      vertex 57.8 14.6 16.2
      vertex 58.8 14.6 16.2
      vertex 58.8 14.6 17.4
    endloop
  endfacet
  facet normal 0 1 0
    outer loop
      vertex 32 38.6 16.2
      vertex 32 38.6 17.4
      vertex 33 38.6 16.2
    endloop
  endfacet
  facet normal 0 1 0
    outer loop
      vertex 33 38.6 16.2
      vertex 32 38.6 17.4
      vertex 33 38.6 17.4
    endloop
  endfacet
  facet normal 1 0 0
    outer loop
      vertex 32 38.6 16.2
      vertex 32 42.6 17.4
      vertex 32 38.6 17.4
    endloop
  endfacet
  facet normal 0 0 -1
    outer loop
      vertex 32 38.6 17.4
      vertex 32 42.6 17.4
      vertex 33 38.6 17.4
    endloop
  endfacet
  facet normal 0 0 1
    outer loop
      vertex 32 38.6 16.2
      vertex 33 38.6 16.2
      vertex 33 42.6 16.2
    endloop
  endfacet
  facet normal 0 0 1
    outer loop
      vertex 32 38.6 16.2
      vertex 33 42.6 16.2
      vertex 32 42.6 16.2
    endloop
  endfacet
  facet normal 1 0 0
    outer loop
      vertex 32 38.6 16.2
      vertex 32 42.6 16.2
      vertex 32 42.6 17.4
    endloop
  endfacet
  facet normal 0 -1 0
    outer loop
      vertex 32 42.6 16.2
      vertex 33 42.6 17.4
      vertex 32 42.6 17.4
    endloop
  endfacet
  facet normal 0 0 -1
    outer loop
      vertex 33 38.6 17.4
      vertex 32 42.6 17.4
      vertex 33 42.6 17.4
    endloop
  endfacet
  facet normal 0 -1 0
    outer loop
      vertex 32 42.6 16.2
      vertex 33 42.6 16.2
      vertex 33 42.6 17.4
    endloop
  endfacet
  facet normal 0 1 0
    outer loop
      vertex 57.8 38.6 16.2
      vertex 57.8 38.6 17.4
      vertex 58.8 38.6 16.2
    endloop
  endfacet
  facet normal 0 1 0
    outer loop
      vertex 58.8 38.6 16.2
      vertex 57.8 38.6 17.4
      vertex 58.8 38.6 17.4
    endloop
  endfacet
  facet normal 0 0 -1
    outer loop
      vertex 57.8 38.6 17.4
      vertex 57.8 42.6 17.4
      vertex 58.8 38.6 17.4
    endloop
  endfacet
  facet normal 0 0 1
    outer loop
      vertex 57.8 38.6 16.2
      vertex 58.8 38.6 16.2
      vertex 58.8 42.6 16.2
    endloop
  endfacet
  facet normal -1 0 0
    outer loop
      vertex 58.8 38.6 16.2
      vertex 58.8 38.6 17.4
      vertex 58.8 42.6 16.2
    endloop
  endfacet
  facet normal 0 0 1
    outer loop
      vertex 57.8 38.6 16.2
      vertex 58.8 42.6 16.2
      vertex 57.8 42.6 16.2
    endloop
  endfacet
  facet normal 0 -1 0
    outer loop
      vertex 57.8 42.6 16.2
      vertex 58.8 42.6 17.4
      vertex 57.8 42.6 17.4
    endloop
  endfacet
  facet normal 0 0 -1
    outer loop
      vertex 58.8 38.6 17.4
      vertex 57.8 42.6 17.4
      vertex 58.8 42.6 17.4
    endloop
  endfacet
  facet normal -1 0 0
    outer loop
      vertex 58.8 38.6 17.4
      vertex 58.8 42.6 17.4
      vertex 58.8 42.6 16.2
    endloop
  endfacet
  facet normal 0 -1 0
    outer loop
      vertex 57.8 42.6 16.2
      vertex 58.8 42.6 16.2
      vertex 58.8 42.6 17.4
    endloop
  endfacet
  facet normal 1 0 0
    outer loop
      vertex 33 3.6 3
      vertex 33 10.6 17.4
      vertex 33 3.6 24.4
    endloop
  endfacet
  facet normal 1 0 0
    outer loop
      vertex 33 3.6 3
      vertex 33 10.6 16.2
      vertex 33 10.6 17.4
    endloop
  endfacet
  facet normal 1 0 0
    outer loop
      vertex 33 3.6 3
      vertex 33 14.6 16.2
      vertex 33 10.6 16.2
    endloop
  endfacet
  facet normal 1 0 0
    outer loop
      vertex 33 3.6 3
      vertex 33 46 24.4
      vertex 33 14.6 16.2
    endloop
  endfacet
  facet normal 1 0 0
    outer loop
      vertex 33 10.6 17.4
      vertex 33 46 24.4
      vertex 33 3.6 24.4
    endloop
  endfacet
  facet normal 1 0 0
    outer loop
      vertex 33 3.6 3
      vertex 33 46 3
      vertex 33 38.6 16.2
    endloop
  endfacet
  facet normal 1 0 0
    outer loop
      vertex 33 3.6 3
      vertex 33 38.6 16.2
      vertex 33 38.6 17.4
    endloop
  endfacet
  facet normal 1 0 0
    outer loop
      vertex 33 3.6 3
      vertex 33 38.6 17.4
      vertex 33 46 24.4
    endloop
  endfacet
  facet normal 1 0 0
    outer loop
      vertex 33 10.6 17.4
      vertex 33 14.6 17.4
      vertex 33 46 24.4
    endloop
  endfacet
  facet normal 1 0 0
    outer loop
      vertex 33 14.6 16.2
      vertex 33 46 24.4
      vertex 33 14.6 17.4
    endloop
  endfacet
  facet normal 0 0 1
    outer loop
      vertex 33 3.6 3
      vertex 45.67927927927928 25.27747747747748 3
      vertex 33 46 3
    endloop
  endfacet
  facet normal 1 0 0
    outer loop
      vertex 33 38.6 16.2
      vertex 33 46 3
      vertex 33 42.6 16.2
    endloop
  endfacet
  facet normal 1 0 0
    outer loop
      vertex 33 38.6 17.4
      vertex 33 42.6 17.4
      vertex 33 46 24.4
    endloop
  endfacet
  facet normal 1 0 0
    outer loop
      vertex 33 42.6 16.2
      vertex 33 46 24.4
      vertex 33 42.6 17.4
    endloop
  endfacet
  facet normal 1 0 0
    outer loop
      vertex 33 42.6 16.2
      vertex 33 46 3
      vertex 33 46 24.4
    endloop
  endfacet
  facet normal -1 0 0
    outer loop
      vertex 57.8 10.6 16.2
      vertex 57.8 3.6 3
      vertex 57.8 3.6 24.4
    endloop
  endfacet
  facet normal 0 0 1
    outer loop
      vertex 45.67927927927928 25.27747747747748 3
      vertex 33 3.6 3
      vertex 57.8 3.6 3
    endloop
  endfacet
  facet normal -1 0 0
    outer loop
      vertex 57.8 10.6 16.2
      vertex 57.8 14.6 16.2
      vertex 57.8 3.6 3
    endloop
  endfacet
  facet normal -1 0 0
    outer loop
      vertex 57.8 10.6 16.2
      vertex 57.8 3.6 24.4
      vertex 57.8 10.6 17.4
    endloop
  endfacet
  facet normal -1 0 0
    outer loop
      vertex 57.8 10.6 17.4
      vertex 57.8 3.6 24.4
      vertex 57.8 14.6 17.4
    endloop
  endfacet
  facet normal -1 0 0
    outer loop
      vertex 57.8 14.6 16.2
      vertex 57.8 46 3
      vertex 57.8 3.6 3
    endloop
  endfacet
  facet normal -1 0 0
    outer loop
      vertex 57.8 14.6 17.4
      vertex 57.8 3.6 24.4
      vertex 57.8 46 3
    endloop
  endfacet
  facet normal 0 0 1
    outer loop
      vertex 57.8 3.6 3
      vertex 57.8 46 3
      vertex 45.67927927927928 25.27747747747748 3
    endloop
  endfacet
  facet normal -1 0 0
    outer loop
      vertex 57.8 14.6 16.2
      vertex 57.8 14.6 17.4
      vertex 57.8 46 3
    endloop
  endfacet
  facet normal -1 0 0
    outer loop
      vertex 57.8 38.6 16.2
      vertex 57.8 46 3
      vertex 57.8 3.6 24.4
    endloop
  endfacet
  facet normal -1 0 0
    outer loop
      vertex 57.8 38.6 16.2
      vertex 57.8 3.6 24.4
      vertex 57.8 38.6 17.4
    endloop
  endfacet
  facet normal -1 0 0
    outer loop
      vertex 57.8 38.6 17.4
      vertex 57.8 3.6 24.4
      vertex 57.8 42.6 17.4
    endloop
  endfacet
  facet normal -1 0 0
    outer loop
      vertex 57.8 42.6 17.4
      vertex 57.8 3.6 24.4
      vertex 57.8 46 24.4
    endloop
  endfacet
  facet normal -1 0 0
    outer loop
      vertex 57.8 38.6 16.2
      vertex 57.8 42.6 16.2
      vertex 57.8 46 3
    endloop
  endfacet
  facet normal -1 0 0
    outer loop
      vertex 57.8 42.6 16.2
      vertex 57.8 42.6 17.4
      vertex 57.8 46 24.4
    endloop
  endfacet
  facet normal -1 0 0
    outer loop
      vertex 57.8 42.6 16.2
      vertex 57.8 46 24.4
      vertex 57.8 46 3
    endloop
  endfacet
  facet normal 1 0 0
    outer loop
      vertex 38.65 0 6.2
      vertex 38.65 0 3.2
      vertex 38.65 2.6 3.2
    endloop
  endfacet
  facet normal 1 0 0
    outer loop
      vertex 38.65 0 6.2
      vertex 38.65 2.6 3.2
      vertex 38.65 2.6 6.2
    endloop
  endfacet
  facet normal 0 0 1
    outer loop
      vertex 38.65 2.6 3.2
      vertex 38.65 0 3.2
      vertex 52.15 2.6 3.2
    endloop
  endfacet
  facet normal 0 0 -1
    outer loop
      vertex 38.65 0 6.2
      vertex 38.65 2.6 6.2
      vertex 52.15 0 6.2
    endloop
  endfacet
  facet normal 0 0 1
    outer loop
      vertex 38.65 0 3.2
      vertex 52.15 0 3.2
      vertex 52.15 2.6 3.2
    endloop
  endfacet
  facet normal 0 0 -1
    outer loop
      vertex 52.15 0 6.2
      vertex 38.65 2.6 6.2
      vertex 52.15 2.6 6.2
    endloop
  endfacet
  facet normal -1 0 0
    outer loop
      vertex 52.15 0 3.2
      vertex 52.15 2.6 6.2
      vertex 52.15 2.6 3.2
    endloop
  endfacet
  facet normal -1 0 0
    outer loop
      vertex 52.15 0 6.2
      vertex 52.15 2.6 6.2
      vertex 52.15 0 3.2
    endloop
  endfacet
  facet normal 1 0 0
    outer loop
      vertex 10 2.6 30.4
      vertex 10 0 114
      vertex 10 0 30.4
    endloop
  endfacet
  facet normal 0 0 1
    outer loop
      vertex 80.8 2.6 30.4
      vertex 10 2.6 30.4
      vertex 10 0 30.4
    endloop
  endfacet
  facet normal 1 0 0
    outer loop
      vertex 10 2.6 30.4
      vertex 10 2.6 114
      vertex 10 0 114
    endloop
  endfacet
  facet normal 0 0 -1
    outer loop
      vertex 80.8 0 114
      vertex 10 0 114
      vertex 10 2.6 114
    endloop
  endfacet
  facet normal 0 0 1
    outer loop
      vertex 80.8 0 30.4
      vertex 80.8 2.6 30.4
      vertex 10 0 30.4
    endloop
  endfacet
  facet normal -1 0 0
    outer loop
      vertex 80.8 2.6 114
      vertex 80.8 2.6 30.4
      vertex 80.8 0 30.4
    endloop
  endfacet
  facet normal 0 0 -1
    outer loop
      vertex 10 2.6 114
      vertex 80.8 2.6 114
      vertex 80.8 0 114
    endloop
  endfacet
  facet normal -1 0 0
    outer loop
      vertex 80.8 0 30.4
      vertex 80.8 0 114
      vertex 80.8 2.6 114
    endloop
  endfacet
endsolid OpenSCAD_Model
