solid OpenSCAD_Model
  facet normal -0.7071067811865476 0 -0.7071067811865476
    outer loop
      vertex 0.7 0 0
      vertex 0 0 0.7
      vertex 0.7 20 0
    endloop
  endfacet
  facet normal 0 -1 0
    outer loop
      vertex 0.7 0 0
      vertex 5.3 0 0
      vertex 0 0 0.7
    endloop
  endfacet
  facet normal 0 0 -1
    outer loop
      vertex 0.7 0 0
      vertex 0.7 20 0
      vertex 5.3 0 0
    endloop
  endfacet
  facet normal 0 -1 0
    outer loop
      vertex 0 0 0.7
      vertex 0.7 0 3.2
      vertex 0 0 2.5
    endloop
  endfacet
  facet normal -1 0 0
    outer loop
      vertex 0 0 0.7
      vertex 0 0 2.5
      vertex 0 20 2.5
    endloop
  endfacet
  facet normal -0.7071067811865476 0 0.7071067811865474
    outer loop
      vertex 0 0 2.5
      vertex 0.7 0 3.2
      vertex 0 20 2.5
    endloop
  endfacet
  facet normal -0.7071067811865476 0 0.7071067811865476
    outer loop
      vertex 0.7 0 3.2
      vertex 0.7 8.999640803649866 3.2
      vertex 0.6900000000000002 8.991111205406504 3.1900000000000004
    endloop
  endfacet
  facet normal 0 0 1
    outer loop
      vertex 0.7 0 3.2
      vertex 0.7849811101037718 8.929898608966624 3.2
      vertex 0.7 8.999640803649866 3.2
    endloop
  endfacet
  facet normal -0.7071067811865476 -2.7295328793691466e-19 0.7071067811865474
    outer loop
      vertex 0.7 0 3.2
      vertex 0.6900000000000002 8.991111205406504 3.1900000000000004
      vertex 0 20 2.5
    endloop
  endfacet
  facet normal 0 0 1
    outer loop
      vertex 0.7 0 3.2
      vertex 1.0074864225461293 8.810967041657975 3.2
      vertex 0.7849811101037718 8.929898608966624 3.2
    endloop
  endfacet
  facet normal 0 0 1
    outer loop
      vertex 0.7 0 3.2
      vertex 1.2489187555652428 8.737729344121043 3.2
      vertex 1.0074864225461293 8.810967041657975 3.2
    endloop
  endfacet
  facet normal 0 0 1
    outer loop
      vertex 0.7 0 3.2
      vertex 1.5 8.713 3.2
      vertex 1.2489187555652428 8.737729344121043 3.2
    endloop
  endfacet
  facet normal 0 0 1
    outer loop
      vertex 0.7 0 3.2
      vertex 1.7510812444347572 8.737729344121043 3.2
      vertex 1.5 8.713 3.2
    endloop
  endfacet
  facet normal 0 0 1
    outer loop
      vertex 0.7 0 3.2
      vertex 1.9925135774538707 8.810967041657975 3.2
      vertex 1.7510812444347572 8.737729344121043 3.2
    endloop
  endfacet
  facet normal 0 -1 0
    outer loop
      vertex 0 0 0.7
      vertex 6 0 2.5
      vertex 0.7 0 3.2
    endloop
  endfacet
  facet normal 0 0 1
    outer loop
      vertex 0.7 0 3.2
      vertex 2.215018889896228 8.929898608966624 3.2
      vertex 1.9925135774538707 8.810967041657975 3.2
    endloop
  endfacet
  facet normal 0 0 1
    outer loop
      vertex 0.7 0 3.2
      vertex 2.410046427387087 9.089953572612913 3.2
      vertex 2.215018889896228 8.929898608966624 3.2
    endloop
  endfacet
  facet normal 0 0 1
    outer loop
      vertex 0.7 0 3.2
      vertex 2.570101391033376 9.284981110103772 3.2
      vertex 2.410046427387087 9.089953572612913 3.2
    endloop
  endfacet
  facet normal 0 0 1
    outer loop
      vertex 0.7 0 3.2
      vertex 2.6890329583420263 9.507486422546128 3.2
      vertex 2.570101391033376 9.284981110103772 3.2
    endloop
  endfacet
  facet normal 0 0 1
    outer loop
      vertex 0.7 0 3.2
      vertex 2.762270655878958 9.748918755565242 3.2
      vertex 2.6890329583420263 9.507486422546128 3.2
    endloop
  endfacet
  facet normal 0 0 1
    outer loop
      vertex 0.7 0 3.2
      vertex 3.589953572612913 9.089953572612913 3.2
      vertex 3.429898608966624 9.284981110103772 3.2
    endloop
  endfacet
  facet normal 0 0 1
    outer loop
      vertex 0.7 0 3.2
      vertex 3.3109670416579737 9.507486422546128 3.2
      vertex 3.237729344121042 9.748918755565242 3.2
    endloop
  endfacet
  facet normal 0 0 1
    outer loop
      vertex 0.7 0 3.2
      vertex 3.237729344121042 9.748918755565242 3.2
      vertex 3.213 10 3.2
    endloop
  endfacet
  facet normal 0 0 1
    outer loop
      vertex 0.7 0 3.2
      vertex 3.213 10 3.2
      vertex 3.237729344121042 10.251081244434758 3.2
    endloop
  endfacet
  facet normal 0 0 1
    outer loop
      vertex 0.7 0 3.2
      vertex 3.429898608966624 9.284981110103772 3.2
      vertex 3.3109670416579737 9.507486422546128 3.2
    endloop
  endfacet
  facet normal 0 0 1
    outer loop
      vertex 0.7 0 3.2
      vertex 3.784981110103772 8.929898608966624 3.2
      vertex 3.589953572612913 9.089953572612913 3.2
    endloop
  endfacet
  facet normal 0 0 1
    outer loop
      vertex 0.7 0 3.2
      vertex 4.00748642254613 8.810967041657975 3.2
      vertex 3.784981110103772 8.929898608966624 3.2
    endloop
  endfacet
  facet normal 0 0 1
    outer loop
      vertex 0.7 0 3.2
      vertex 4.248918755565243 8.737729344121043 3.2
      vertex 4.00748642254613 8.810967041657975 3.2
    endloop
  endfacet
  facet normal 0 0 1
    outer loop
      vertex 0.7 0 3.2
      vertex 5.3 20 3.2
      vertex 2.762270655878958 9.748918755565242 3.2
    endloop
  endfacet
  facet normal -0.7071067811865476 0 -0.7071067811865476
    outer loop
      vertex 0 0 0.7
      vertex 0 20 0.7
      vertex 0.7 20 0
    endloop
  endfacet
  facet normal -1 0 0
    outer loop
      vertex 0 0 0.7
      vertex 0 20 2.5
      vertex 0 20 0.7
    endloop
  endfacet
  facet normal 0 1 0
    outer loop
      vertex 0.7 20 0
      vertex 0 20 0.7
      vertex 0 20 2.5
    endloop
  endfacet
  facet normal -0.7071067811865476 -1.3036490029777894e-17 0.7071067811865477
    outer loop
      vertex 0 20 2.5
      vertex 0.6900000000000002 8.991111205406504 3.1900000000000004
      vertex 0.6900000000000002 11.008888794593496 3.1900000000000004
    endloop
  endfacet
  facet normal -0.7071067811865476 0 0.7071067811865476
    outer loop
      vertex 0.7 20 3.2
      vertex 0.6900000000000002 11.008888794593496 3.1900000000000004
      vertex 0.7 11.000359196350134 3.2
    endloop
  endfacet
  facet normal 0 0 1
    outer loop
      vertex 0.7 20 3.2
      vertex 0.7 11.000359196350134 3.2
      vertex 0.7849811101037718 11.070101391033376 3.2
    endloop
  endfacet
  facet normal 0 0 1
    outer loop
      vertex 0.7 20 3.2
      vertex 0.7849811101037718 11.070101391033376 3.2
      vertex 1.0074864225461293 11.189032958342025 3.2
    endloop
  endfacet
  facet normal 0 0 1
    outer loop
      vertex 0.7 20 3.2
      vertex 1.0074864225461293 11.189032958342025 3.2
      vertex 1.2489187555652428 11.262270655878957 3.2
    endloop
  endfacet
  facet normal 0 0 1
    outer loop
      vertex 0.7 20 3.2
      vertex 1.2489187555652428 11.262270655878957 3.2
      vertex 1.5 11.287 3.2
    endloop
  endfacet
  facet normal 0 1 0
    outer loop
      vertex 0.7 20 0
      vertex 0 20 2.5
      vertex 0.7 20 3.2
    endloop
  endfacet
  facet normal -0.7071067811865476 -2.1953132092296653e-18 0.7071067811865474
    outer loop
      vertex 0 20 2.5
      vertex 0.6900000000000002 11.008888794593496 3.1900000000000004
      vertex 0.7 20 3.2
    endloop
  endfacet
  facet normal 0 0 1
    outer loop
      vertex 5.3 20 3.2
      vertex 1.5 11.287 3.2
      vertex 1.7510812444347572 11.262270655878957 3.2
    endloop
  endfacet
  facet normal 0 1 0
    outer loop
      vertex 0.7 20 0
      vertex 0.7 20 3.2
      vertex 6 20 2.5
    endloop
  endfacet
  facet normal 0 0 1
    outer loop
      vertex 0.7 20 3.2
      vertex 1.5 11.287 3.2
      vertex 5.3 20 3.2
    endloop
  endfacet
  facet normal 0 -1 0
    outer loop
      vertex 0 0 0.7
      vertex 5.3 0 0
      vertex 6 0 2.5
    endloop
  endfacet
  facet normal 0 -1 0
    outer loop
      vertex 5.3 0 0
      vertex 6 0 0.7
      vertex 6 0 2.5
    endloop
  endfacet
  facet normal 0.7071067811865474 -4.485978453382218e-19 -0.7071067811865476
    outer loop
      vertex 5.3 0 0
      vertex 6 20 0.7
      vertex 6 0 0.7
    endloop
  endfacet
  facet normal 1 0 0
    outer loop
      vertex 6 0 0.7
      vertex 6 20 0.7
      vertex 6 0 2.5
    endloop
  endfacet
  facet normal 0 0 1
    outer loop
      vertex 0.7 0 3.2
      vertex 5.3 0 3.2
      vertex 4.5 8.713 3.2
    endloop
  endfacet
  facet normal 0 -1 0
    outer loop
      vertex 0.7 0 3.2
      vertex 6 0 2.5
      vertex 5.3 0 3.2
    endloop
  endfacet
  facet normal 0 0 1
    outer loop
      vertex 0.7 0 3.2
      vertex 4.5 8.713 3.2
      vertex 4.248918755565243 8.737729344121043 3.2
    endloop
  endfacet
  facet normal 0.7071067811865475 -2.544567583425299e-18 0.7071067811865475
    outer loop
      vertex 6 0 2.5
      vertex 5.31 8.991111205406504 3.1900000000000004
      vertex 5.3 0 3.2
    endloop
  endfacet
  facet normal 0 0 1
    outer loop
      vertex 5.3 0 3.2
      vertex 4.751081244434757 8.737729344121043 3.2
      vertex 4.5 8.713 3.2
    endloop
  endfacet
  facet normal 0 0 1
    outer loop
      vertex 5.3 0 3.2
      vertex 4.99251357745387 8.810967041657975 3.2
      vertex 4.751081244434757 8.737729344121043 3.2
    endloop
  endfacet
  facet normal 0 0 1
    outer loop
      vertex 5.3 0 3.2
      vertex 5.2150188898962275 8.929898608966624 3.2
      vertex 4.99251357745387 8.810967041657975 3.2
    endloop
  endfacet
  facet normal 0.7071067811865476 -8.390266939580336e-18 0.7071067811865476
    outer loop
      vertex 6 0 2.5
      vertex 5.31 11.008888794593496 3.1900000000000004
      vertex 5.31 8.991111205406504 3.1900000000000004
    endloop
  endfacet
  facet normal 0 0 1
    outer loop
      vertex 5.3 0 3.2
      vertex 5.3 8.999640803649866 3.2
      vertex 5.2150188898962275 8.929898608966624 3.2
    endloop
  endfacet
  facet normal 0.7071067811865476 0 0.7071067811865476
    outer loop
      vertex 5.3 0 3.2
      vertex 5.31 8.991111205406504 3.1900000000000004
      vertex 5.3 8.999640803649866 3.2
    endloop
  endfacet
  facet normal 0 0 -1
    outer loop
      vertex 0.7 20 0
      vertex 5.3 20 0
      vertex 5.3 0 0
    endloop
  endfacet
  facet normal 0 1 0
    outer loop
      vertex 0.7 20 0
      vertex 6 20 0.7
      vertex 5.3 20 0
    endloop
  endfacet
  facet normal 0 1 0
    outer loop
      vertex 0.7 20 0
      vertex 6 20 2.5
      vertex 6 20 0.7
    endloop
  endfacet
  facet normal 0.7071067811865474 0 -0.7071067811865476
    outer loop
      vertex 5.3 0 0
      vertex 5.3 20 0
      vertex 6 20 0.7
    endloop
  endfacet
  facet normal 0 0 1
    outer loop
      vertex 0.7 0 3.2
      vertex 3.237729344121042 10.251081244434758 3.2
      vertex 5.3 20 3.2
    endloop
  endfacet
  facet normal 0 0 1
    outer loop
      vertex 5.3 20 3.2
      vertex 1.7510812444347572 11.262270655878957 3.2
      vertex 1.9925135774538707 11.189032958342025 3.2
    endloop
  endfacet
  facet normal 0 0 1
    outer loop
      vertex 5.3 20 3.2
      vertex 1.9925135774538707 11.189032958342025 3.2
      vertex 2.215018889896228 11.070101391033376 3.2
    endloop
  endfacet
  facet normal 0 0 1
    outer loop
      vertex 5.3 20 3.2
      vertex 2.215018889896228 11.070101391033376 3.2
      vertex 2.410046427387087 10.910046427387087 3.2
    endloop
  endfacet
  facet normal 0 0 1
    outer loop
      vertex 5.3 20 3.2
      vertex 2.570101391033376 10.715018889896228 3.2
      vertex 2.6890329583420263 10.492513577453872 3.2
    endloop
  endfacet
  facet normal 0 0 1
    outer loop
      vertex 5.3 20 3.2
      vertex 2.787 10 3.2
      vertex 2.762270655878958 9.748918755565242 3.2
    endloop
  endfacet
  facet normal 0 0 1
    outer loop
      vertex 5.3 20 3.2
      vertex 2.762270655878958 10.251081244434758 3.2
      vertex 2.787 10 3.2
    endloop
  endfacet
  facet normal 0 0 1
    outer loop
      vertex 5.3 20 3.2
      vertex 2.6890329583420263 10.492513577453872 3.2
      vertex 2.762270655878958 10.251081244434758 3.2
    endloop
  endfacet
  facet normal 0 0 1
    outer loop
      vertex 5.3 20 3.2
      vertex 2.410046427387087 10.910046427387087 3.2
      vertex 2.570101391033376 10.715018889896228 3.2
    endloop
  endfacet
  facet normal 0 0 1
    outer loop
      vertex 5.3 20 3.2
      vertex 3.237729344121042 10.251081244434758 3.2
      vertex 3.3109670416579737 10.492513577453872 3.2
    endloop
  endfacet
  facet normal 0 0 1
    outer loop
      vertex 5.3 20 3.2
      vertex 3.3109670416579737 10.492513577453872 3.2
      vertex 3.429898608966624 10.715018889896228 3.2
    endloop
  endfacet
  facet normal 0 0 1
    outer loop
      vertex 5.3 20 3.2
      vertex 3.429898608966624 10.715018889896228 3.2
      vertex 3.589953572612913 10.910046427387087 3.2
    endloop
  endfacet
  facet normal 0 0 1
    outer loop
      vertex 5.3 20 3.2
      vertex 3.589953572612913 10.910046427387087 3.2
      vertex 3.784981110103772 11.070101391033376 3.2
    endloop
  endfacet
  facet normal 0 0 1
    outer loop
      vertex 5.3 20 3.2
      vertex 3.784981110103772 11.070101391033376 3.2
      vertex 4.00748642254613 11.189032958342025 3.2
    endloop
  endfacet
  facet normal 0 1 0
    outer loop
      vertex 0.7 20 3.2
      vertex 5.3 20 3.2
      vertex 6 20 2.5
    endloop
  endfacet
  facet normal 1 0 0
    outer loop
      vertex 6 0 2.5
      vertex 6 20 0.7
      vertex 6 20 2.5
    endloop
  endfacet
  facet normal 0 0 1
    outer loop
      vertex 5.3 20 3.2
      vertex 4.00748642254613 11.189032958342025 3.2
      vertex 4.248918755565243 11.262270655878957 3.2
    endloop
  endfacet
  facet normal 0 0 1
    outer loop
      vertex 5.3 20 3.2
      vertex 4.248918755565243 11.262270655878957 3.2
      vertex 4.5 11.287 3.2
    endloop
  endfacet
  facet normal 0 0 1
    outer loop
      vertex 5.3 20 3.2
      vertex 4.5 11.287 3.2
      vertex 4.751081244434757 11.262270655878957 3.2
    endloop
  endfacet
  facet normal 0 0 1
    outer loop
      vertex 5.3 20 3.2
      vertex 4.751081244434757 11.262270655878957 3.2
      vertex 4.99251357745387 11.189032958342025 3.2
    endloop
  endfacet
  facet normal 0 0 1
    outer loop
      vertex 5.3 20 3.2
      vertex 4.99251357745387 11.189032958342025 3.2
      vertex 5.2150188898962275 11.070101391033376 3.2
    endloop
  endfacet
  facet normal 0.7071067811865475 -2.628081214826241e-18 0.7071067811865475
    outer loop
      vertex 6 0 2.5
      vertex 5.3 20 3.2
      vertex 5.31 11.008888794593496 3.1900000000000004
    endloop
  endfacet
  facet normal 0.7071067811865475 0 0.7071067811865475
    outer loop
      vertex 6 0 2.5
      vertex 6 20 2.5
      vertex 5.3 20 3.2
    endloop
  endfacet
  facet normal 0 0 1
    outer loop
      vertex 5.3 20 3.2
      vertex 5.2150188898962275 11.070101391033376 3.2
      vertex 5.3 11.000359196350134 3.2
    endloop
  endfacet
  facet normal 0.7071067811865476 0 0.7071067811865476
    outer loop
      vertex 5.3 20 3.2
      vertex 5.3 11.000359196350134 3.2
      vertex 5.31 11.008888794593496 3.1900000000000004
    endloop
  endfacet
  facet normal 0 0 -1
    outer loop
      vertex 0.2989566077353272 9.502511537925383 3.1900000000000004
      vertex 0.2249791354758004 9.746382581379033 3.1900000000000004
      vertex 0.2989566077353272 10.497488462074617 3.1900000000000004
    endloop
  endfacet
  facet normal 0 0 -1
    outer loop
      vertex 0.4190895040066911 9.277758697074518 3.1900000000000004
      vertex 0.2989566077353272 9.502511537925383 3.1900000000000004
      vertex 0.4190895040066911 10.722241302925482 3.1900000000000004
    endloop
  endfacet
  facet normal 0 0 -1
    outer loop
      vertex 0.4190895040066911 9.277758697074518 3.1900000000000004
      vertex 0.5807611844574881 10.919238815542512 3.1900000000000004
      vertex 0.5807611844574881 9.080761184457488 3.1900000000000004
    endloop
  endfacet
  facet normal -0.608614369570329 -0.05994328336231741 0.7911986804414275
    outer loop
      vertex 0.2249791354758004 9.746382581379033 3.1900000000000004
      vertex 0.7849999999999999 10 3.6400000000000006
      vertex 0.19999999999999996 10 3.1900000000000004
    endloop
  endfacet
  facet normal -0.585225660662612 -0.17752626332391921 0.7911986804414274
    outer loop
      vertex 0.2989566077353272 9.502511537925383 3.1900000000000004
      vertex 0.7987385245116901 9.860510419758468 3.6400000000000006
      vertex 0.2249791354758004 9.746382581379033 3.1900000000000004
    endloop
  endfacet
  facet normal -0.5393470578139615 -0.28828700854385925 0.7911986804414276
    outer loop
      vertex 0.4190895040066911 9.277758697074518 3.1900000000000004
      vertex 0.8394261342544299 9.726381345858961 3.6400000000000006
      vertex 0.2989566077353272 9.502511537925383 3.1900000000000004
    endloop
  endfacet
  facet normal -0.38796904569865304 -0.47274165000281093 0.7911986804414528
    outer loop
      vertex 0.5807611844574881 9.080761184457488 3.1900000000000004
      vertex 0.6900000000000002 8.991111205406504 3.1900000000000004
      vertex 0.7 8.999640803649866 3.2
    endloop
  endfacet
  facet normal -0.4727416500028375 -0.3879690456986736 0.791198680441427
    outer loop
      vertex 0.4190895040066911 9.277758697074518 3.1900000000000004
      vertex 0.5807611844574881 9.080761184457488 3.1900000000000004
      vertex 0.90549922720368 9.602767283390984 3.6400000000000006
    endloop
  endfacet
  facet normal 0 0 -1
    outer loop
      vertex 0.5807611844574881 9.080761184457488 3.1900000000000004
      vertex 0.6900000000000002 11.008888794593496 3.1900000000000004
      vertex 0.6900000000000002 8.991111205406504 3.1900000000000004
    endloop
  endfacet
  facet normal -0.608614369570329 -0.05994328336231745 0.7911986804414274
    outer loop
      vertex 0.2249791354758004 9.746382581379033 3.1900000000000004
      vertex 0.7987385245116901 9.860510419758468 3.6400000000000006
      vertex 0.7849999999999999 10 3.6400000000000006
    endloop
  endfacet
  facet normal -0.5852256606626114 -0.17752626332392038 0.7911986804414275
    outer loop
      vertex 0.2989566077353272 9.502511537925383 3.1900000000000004
      vertex 0.8394261342544299 9.726381345858961 3.6400000000000006
      vertex 0.7987385245116901 9.860510419758468 3.6400000000000006
    endloop
  endfacet
  facet normal -0.5393470578139635 -0.2882870085438565 0.7911986804414269
    outer loop
      vertex 0.4190895040066911 9.277758697074518 3.1900000000000004
      vertex 0.90549922720368 9.602767283390984 3.6400000000000006
      vertex 0.8394261342544299 9.726381345858961 3.6400000000000006
    endloop
  endfacet
  facet normal -0.3879690456986707 -0.4727416500028401 0.7911986804414268
    outer loop
      vertex 0.5807611844574881 9.080761184457488 3.1900000000000004
      vertex 0.7 8.999640803649866 3.2
      vertex 0.9944186514516185 9.494418651451618 3.6400000000000006
    endloop
  endfacet
  facet normal -0.3879690456986771 -0.47274165000283397 0.7911986804414274
    outer loop
      vertex 1.1027672833909845 9.40549922720368 3.6400000000000006
      vertex 0.7 8.999640803649866 3.2
      vertex 0.7849811101037718 8.929898608966624 3.2
    endloop
  endfacet
  facet normal -0.2882870085438574 -0.5393470578139635 0.7911986804414267
    outer loop
      vertex 1.2263813458589607 9.33942613425443 3.6400000000000006
      vertex 0.7849811101037718 8.929898608966624 3.2
      vertex 1.0074864225461293 8.810967041657975 3.2
    endloop
  endfacet
  facet normal -0.38796904569867025 -0.4727416500028405 0.7911986804414268
    outer loop
      vertex 0.9944186514516185 9.494418651451618 3.6400000000000006
      vertex 0.7 8.999640803649866 3.2
      vertex 1.1027672833909845 9.40549922720368 3.6400000000000006
    endloop
  endfacet
  facet normal -0.4727416500028372 -0.3879690456986737 0.791198680441427
    outer loop
      vertex 0.5807611844574881 9.080761184457488 3.1900000000000004
      vertex 0.9944186514516185 9.494418651451618 3.6400000000000006
      vertex 0.90549922720368 9.602767283390984 3.6400000000000006
    endloop
  endfacet
  facet normal 0 0 1
    outer loop
      vertex 0.8394261342544299 9.726381345858961 3.6400000000000006
      vertex 0.7987385245116901 10.139489580241532 3.6400000000000006
      vertex 0.7987385245116901 9.860510419758468 3.6400000000000006
    endloop
  endfacet
  facet normal 0 0 1
    outer loop
      vertex 0.8394261342544299 9.726381345858961 3.6400000000000006
      vertex 0.90549922720368 9.602767283390984 3.6400000000000006
      vertex 0.8394261342544299 10.273618654141039 3.6400000000000006
    endloop
  endfacet
  facet normal 0 0 1
    outer loop
      vertex 0.9944186514516185 9.494418651451618 3.6400000000000006
      vertex 0.90549922720368 10.397232716609016 3.6400000000000006
      vertex 0.90549922720368 9.602767283390984 3.6400000000000006
    endloop
  endfacet
  facet normal -0.2882870085438619 -0.5393470578139598 0.7911986804414276
    outer loop
      vertex 1.2263813458589607 9.33942613425443 3.6400000000000006
      vertex 1.1027672833909845 9.40549922720368 3.6400000000000006
      vertex 0.7849811101037718 8.929898608966624 3.2
    endloop
  endfacet
  facet normal 0 0 1
    outer loop
      vertex 0.9944186514516185 9.494418651451618 3.6400000000000006
      vertex 1.1027672833909845 9.40549922720368 3.6400000000000006
      vertex 0.9944186514516185 10.505581348548382 3.6400000000000006
    endloop
  endfacet
  facet normal -0.17752626332392055 -0.5852256606626124 0.7911986804414266
    outer loop
      vertex 1.3605104197584683 9.29873852451169 3.6400000000000006
      vertex 1.0074864225461293 8.810967041657975 3.2
      vertex 1.2489187555652428 8.737729344121043 3.2
    endloop
  endfacet
  facet normal -0.05994328336231981 -0.6086143695703284 0.7911986804414275
    outer loop
      vertex 1.5 9.285 3.6400000000000006
      vertex 1.2489187555652428 8.737729344121043 3.2
      vertex 1.5 8.713 3.2
    endloop
  endfacet
  facet normal -0.17752626332392044 -0.5852256606626125 0.7911986804414266
    outer loop
      vertex 1.2263813458589607 9.33942613425443 3.6400000000000006
      vertex 1.0074864225461293 8.810967041657975 3.2
      vertex 1.3605104197584683 9.29873852451169 3.6400000000000006
    endloop
  endfacet
  facet normal 0 0 1
    outer loop
      vertex 1.2263813458589607 9.33942613425443 3.6400000000000006
      vertex 1.1027672833909845 10.59450077279632 3.6400000000000006
      vertex 1.1027672833909845 9.40549922720368 3.6400000000000006
    endloop
  endfacet
  facet normal 0 0 1
    outer loop
      vertex 1.2263813458589607 9.33942613425443 3.6400000000000006
      vertex 1.3605104197584683 9.29873852451169 3.6400000000000006
      vertex 1.2263813458589607 10.66057386574557 3.6400000000000006
    endloop
  endfacet
  facet normal -0.05994328336231328 -0.6086143695703307 0.7911986804414265
    outer loop
      vertex 1.3605104197584683 9.29873852451169 3.6400000000000006
      vertex 1.2489187555652428 8.737729344121043 3.2
      vertex 1.5 9.285 3.6400000000000006
    endloop
  endfacet
  facet normal 0 0 1
    outer loop
      vertex 1.3605104197584683 9.29873852451169 3.6400000000000006
      vertex 1.5 9.285 3.6400000000000006
      vertex 1.3605104197584683 10.70126147548831 3.6400000000000006
    endloop
  endfacet
  facet normal 0.05994328336231997 -0.6086143695703294 0.7911986804414267
    outer loop
      vertex 1.6394895802415317 9.29873852451169 3.6400000000000006
      vertex 1.5 8.713 3.2
      vertex 1.7510812444347572 8.737729344121043 3.2
    endloop
  endfacet
  facet normal 0.17752626332392055 -0.5852256606626125 0.7911986804414266
    outer loop
      vertex 1.7736186541410393 9.33942613425443 3.6400000000000006
      vertex 1.7510812444347572 8.737729344121043 3.2
      vertex 1.9925135774538707 8.810967041657975 3.2
    endloop
  endfacet
  facet normal 0.05994328336231309 -0.6086143695703287 0.7911986804414279
    outer loop
      vertex 1.5 9.285 3.6400000000000006
      vertex 1.5 8.713 3.2
      vertex 1.6394895802415317 9.29873852451169 3.6400000000000006
    endloop
  endfacet
  facet normal 0 0 1
    outer loop
      vertex 1.5 9.285 3.6400000000000006
      vertex 1.6394895802415317 9.29873852451169 3.6400000000000006
      vertex 1.5 10.715 3.6400000000000006
    endloop
  endfacet
  facet normal 0 0 1
    outer loop
      vertex 1.6394895802415317 9.29873852451169 3.6400000000000006
      vertex 1.7736186541410393 9.33942613425443 3.6400000000000006
      vertex 1.6394895802415317 10.70126147548831 3.6400000000000006
    endloop
  endfacet
  facet normal 0.17752626332392044 -0.5852256606626125 0.7911986804414267
    outer loop
      vertex 1.6394895802415317 9.29873852451169 3.6400000000000006
      vertex 1.7510812444347572 8.737729344121043 3.2
      vertex 1.7736186541410393 9.33942613425443 3.6400000000000006
    endloop
  endfacet
  facet normal 0 0 1
    outer loop
      vertex 1.7736186541410393 9.33942613425443 3.6400000000000006
      vertex 1.8972327166090155 9.40549922720368 3.6400000000000006
      vertex 1.7736186541410393 10.66057386574557 3.6400000000000006
    endloop
  endfacet
  facet normal 0.28828700854385747 -0.5393470578139627 0.7911986804414274
    outer loop
      vertex 1.8972327166090155 9.40549922720368 3.6400000000000006
      vertex 1.9925135774538707 8.810967041657975 3.2
      vertex 2.215018889896228 8.929898608966624 3.2
    endloop
  endfacet
  facet normal 0.3879690456986731 -0.47274165000283785 0.7911986804414269
    outer loop
      vertex 2.0055813485483815 9.494418651451618 3.6400000000000006
      vertex 2.215018889896228 8.929898608966624 3.2
      vertex 2.410046427387087 9.089953572612913 3.2
    endloop
  endfacet
  facet normal 0.28828700854386263 -0.5393470578139612 0.7911986804414265
    outer loop
      vertex 1.7736186541410393 9.33942613425443 3.6400000000000006
      vertex 1.9925135774538707 8.810967041657975 3.2
      vertex 1.8972327166090155 9.40549922720368 3.6400000000000006
    endloop
  endfacet
  facet normal 0.3879690456986695 -0.4727416500028397 0.7911986804414276
    outer loop
      vertex 1.8972327166090155 9.40549922720368 3.6400000000000006
      vertex 2.215018889896228 8.929898608966624 3.2
      vertex 2.0055813485483815 9.494418651451618 3.6400000000000006
    endloop
  endfacet
  facet normal 0 0 1
    outer loop
      vertex 1.8972327166090155 9.40549922720368 3.6400000000000006
      vertex 2.0055813485483815 9.494418651451618 3.6400000000000006
      vertex 1.8972327166090155 10.59450077279632 3.6400000000000006
    endloop
  endfacet
  facet normal 0 0 1
    outer loop
      vertex 2.0055813485483815 9.494418651451618 3.6400000000000006
      vertex 2.09450077279632 9.602767283390984 3.6400000000000006
      vertex 2.0055813485483815 10.505581348548382 3.6400000000000006
    endloop
  endfacet
  facet normal 0.47274165000283735 -0.3879690456986734 0.7911986804414269
    outer loop
      vertex 2.0055813485483815 9.494418651451618 3.6400000000000006
      vertex 2.410046427387087 9.089953572612913 3.2
      vertex 2.09450077279632 9.602767283390984 3.6400000000000006
    endloop
  endfacet
  facet normal 0 0 1
    outer loop
      vertex 2.09450077279632 9.602767283390984 3.6400000000000006
      vertex 2.16057386574557 9.726381345858961 3.6400000000000006
      vertex 2.09450077279632 10.397232716609016 3.6400000000000006
    endloop
  endfacet
  facet normal 0 0 1
    outer loop
      vertex 2.16057386574557 9.726381345858961 3.6400000000000006
      vertex 2.2012614754883097 9.860510419758468 3.6400000000000006
      vertex 2.16057386574557 10.273618654141039 3.6400000000000006
    endloop
  endfacet
  facet normal 0.47274165000283663 -0.38796904569867396 0.7911986804414272
    outer loop
      vertex 2.09450077279632 9.602767283390984 3.6400000000000006
      vertex 2.410046427387087 9.089953572612913 3.2
      vertex 2.570101391033376 9.284981110103772 3.2
    endloop
  endfacet
  facet normal 0.5393470578139615 -0.288287008543859 0.7911986804414276
    outer loop
      vertex 2.16057386574557 9.726381345858961 3.6400000000000006
      vertex 2.570101391033376 9.284981110103772 3.2
      vertex 2.6890329583420263 9.507486422546128 3.2
    endloop
  endfacet
  facet normal 0.585225660662612 -0.17752626332391877 0.7911986804414274
    outer loop
      vertex 2.2012614754883097 9.860510419758468 3.6400000000000006
      vertex 2.6890329583420263 9.507486422546128 3.2
      vertex 2.762270655878958 9.748918755565242 3.2
    endloop
  endfacet
  facet normal 0.6086143695703292 -0.059943283362316656 0.7911986804414274
    outer loop
      vertex 2.215 10 3.6400000000000006
      vertex 2.762270655878958 9.748918755565242 3.2
      vertex 2.787 10 3.2
    endloop
  endfacet
  facet normal 0.539347057813963 -0.28828700854385714 0.7911986804414272
    outer loop
      vertex 2.09450077279632 9.602767283390984 3.6400000000000006
      vertex 2.570101391033376 9.284981110103772 3.2
      vertex 2.16057386574557 9.726381345858961 3.6400000000000006
    endloop
  endfacet
  facet normal 0.5852256606626116 -0.17752626332391938 0.7911986804414275
    outer loop
      vertex 2.16057386574557 9.726381345858961 3.6400000000000006
      vertex 2.6890329583420263 9.507486422546128 3.2
      vertex 2.2012614754883097 9.860510419758468 3.6400000000000006
    endloop
  endfacet
  facet normal 0.6086143695703291 -0.05994328336231672 0.7911986804414274
    outer loop
      vertex 2.2012614754883097 9.860510419758468 3.6400000000000006
      vertex 2.762270655878958 9.748918755565242 3.2
      vertex 2.215 10 3.6400000000000006
    endloop
  endfacet
  facet normal 0 0 -1
    outer loop
      vertex 0.2249791354758004 9.746382581379033 3.1900000000000004
      vertex 0.19999999999999996 10 3.1900000000000004
      vertex 0.2249791354758004 10.253617418620967 3.1900000000000004
    endloop
  endfacet
  facet normal 0 0 -1
    outer loop
      vertex 0.2249791354758004 9.746382581379033 3.1900000000000004
      vertex 0.2249791354758004 10.253617418620967 3.1900000000000004
      vertex 0.2989566077353272 10.497488462074617 3.1900000000000004
    endloop
  endfacet
  facet normal 0 0 -1
    outer loop
      vertex 0.2989566077353272 9.502511537925383 3.1900000000000004
      vertex 0.2989566077353272 10.497488462074617 3.1900000000000004
      vertex 0.4190895040066911 10.722241302925482 3.1900000000000004
    endloop
  endfacet
  facet normal 0 0 -1
    outer loop
      vertex 0.4190895040066911 9.277758697074518 3.1900000000000004
      vertex 0.4190895040066911 10.722241302925482 3.1900000000000004
      vertex 0.5807611844574881 10.919238815542512 3.1900000000000004
    endloop
  endfacet
  facet normal -0.608614369570329 0.05994328336231741 0.7911986804414275
    outer loop
      vertex 0.19999999999999996 10 3.1900000000000004
      vertex 0.7849999999999999 10 3.6400000000000006
      vertex 0.2249791354758004 10.253617418620967 3.1900000000000004
    endloop
  endfacet
  facet normal -0.585225660662612 0.17752626332391921 0.7911986804414274
    outer loop
      vertex 0.2249791354758004 10.253617418620967 3.1900000000000004
      vertex 0.7987385245116901 10.139489580241532 3.6400000000000006
      vertex 0.2989566077353272 10.497488462074617 3.1900000000000004
    endloop
  endfacet
  facet normal -0.5393470578139615 0.28828700854385925 0.7911986804414276
    outer loop
      vertex 0.2989566077353272 10.497488462074617 3.1900000000000004
      vertex 0.8394261342544299 10.273618654141039 3.6400000000000006
      vertex 0.4190895040066911 10.722241302925482 3.1900000000000004
    endloop
  endfacet
  facet normal 0 0 -1
    outer loop
      vertex 0.5807611844574881 9.080761184457488 3.1900000000000004
      vertex 0.5807611844574881 10.919238815542512 3.1900000000000004
      vertex 0.6900000000000002 11.008888794593496 3.1900000000000004
    endloop
  endfacet
  facet normal -0.38796904569865315 0.4727416500028111 0.7911986804414529
    outer loop
      vertex 0.5807611844574881 10.919238815542512 3.1900000000000004
      vertex 0.7 11.000359196350134 3.2
      vertex 0.6900000000000002 11.008888794593496 3.1900000000000004
    endloop
  endfacet
  facet normal -0.47274165000283747 0.3879690456986735 0.791198680441427
    outer loop
      vertex 0.4190895040066911 10.722241302925482 3.1900000000000004
      vertex 0.90549922720368 10.397232716609016 3.6400000000000006
      vertex 0.5807611844574881 10.919238815542512 3.1900000000000004
    endloop
  endfacet
  facet normal -0.6086143695703291 0.0599432833623173 0.7911986804414273
    outer loop
      vertex 0.2249791354758004 10.253617418620967 3.1900000000000004
      vertex 0.7849999999999999 10 3.6400000000000006
      vertex 0.7987385245116901 10.139489580241532 3.6400000000000006
    endloop
  endfacet
  facet normal -0.5852256606626115 0.17752626332392027 0.7911986804414275
    outer loop
      vertex 0.2989566077353272 10.497488462074617 3.1900000000000004
      vertex 0.7987385245116901 10.139489580241532 3.6400000000000006
      vertex 0.8394261342544299 10.273618654141039 3.6400000000000006
    endloop
  endfacet
  facet normal -0.5393470578139636 0.2882870085438565 0.7911986804414269
    outer loop
      vertex 0.4190895040066911 10.722241302925482 3.1900000000000004
      vertex 0.8394261342544299 10.273618654141039 3.6400000000000006
      vertex 0.90549922720368 10.397232716609016 3.6400000000000006
    endloop
  endfacet
  facet normal -0.38796904569867074 0.4727416500028402 0.7911986804414268
    outer loop
      vertex 0.5807611844574881 10.919238815542512 3.1900000000000004
      vertex 0.9944186514516185 10.505581348548382 3.6400000000000006
      vertex 0.7 11.000359196350134 3.2
    endloop
  endfacet
  facet normal -0.387969045698678 0.47274165000283525 0.7911986804414262
    outer loop
      vertex 0.9944186514516185 10.505581348548382 3.6400000000000006
      vertex 0.7849811101037718 11.070101391033376 3.2
      vertex 0.7 11.000359196350134 3.2
    endloop
  endfacet
  facet normal -0.28828700854385714 0.5393470578139627 0.7911986804414273
    outer loop
      vertex 1.1027672833909845 10.59450077279632 3.6400000000000006
      vertex 1.0074864225461293 11.189032958342025 3.2
      vertex 0.7849811101037718 11.070101391033376 3.2
    endloop
  endfacet
  facet normal -0.4727416500028372 0.3879690456986739 0.7911986804414269
    outer loop
      vertex 0.5807611844574881 10.919238815542512 3.1900000000000004
      vertex 0.90549922720368 10.397232716609016 3.6400000000000006
      vertex 0.9944186514516185 10.505581348548382 3.6400000000000006
    endloop
  endfacet
  facet normal 0 0 1
    outer loop
      vertex 0.7987385245116901 9.860510419758468 3.6400000000000006
      vertex 0.7987385245116901 10.139489580241532 3.6400000000000006
      vertex 0.7849999999999999 10 3.6400000000000006
    endloop
  endfacet
  facet normal 0 0 1
    outer loop
      vertex 0.8394261342544299 9.726381345858961 3.6400000000000006
      vertex 0.8394261342544299 10.273618654141039 3.6400000000000006
      vertex 0.7987385245116901 10.139489580241532 3.6400000000000006
    endloop
  endfacet
  facet normal 0 0 1
    outer loop
      vertex 0.90549922720368 9.602767283390984 3.6400000000000006
      vertex 0.90549922720368 10.397232716609016 3.6400000000000006
      vertex 0.8394261342544299 10.273618654141039 3.6400000000000006
    endloop
  endfacet
  facet normal 0 0 1
    outer loop
      vertex 0.9944186514516185 9.494418651451618 3.6400000000000006
      vertex 0.9944186514516185 10.505581348548382 3.6400000000000006
      vertex 0.90549922720368 10.397232716609016 3.6400000000000006
    endloop
  endfacet
  facet normal 0 0 1
    outer loop
      vertex 1.1027672833909845 9.40549922720368 3.6400000000000006
      vertex 1.1027672833909845 10.59450077279632 3.6400000000000006
      vertex 0.9944186514516185 10.505581348548382 3.6400000000000006
    endloop
  endfacet
  facet normal -0.38796904569866947 0.47274165000283963 0.7911986804414276
    outer loop
      vertex 0.9944186514516185 10.505581348548382 3.6400000000000006
      vertex 1.1027672833909845 10.59450077279632 3.6400000000000006
      vertex 0.7849811101037718 11.070101391033376 3.2
    endloop
  endfacet
  facet normal -0.28828700854386263 0.5393470578139612 0.7911986804414264
    outer loop
      vertex 1.1027672833909845 10.59450077279632 3.6400000000000006
      vertex 1.2263813458589607 10.66057386574557 3.6400000000000006
      vertex 1.0074864225461293 11.189032958342025 3.2
    endloop
  endfacet
  facet normal -0.17752626332392055 0.5852256606626125 0.7911986804414266
    outer loop
      vertex 1.2263813458589607 10.66057386574557 3.6400000000000006
      vertex 1.2489187555652428 11.262270655878957 3.2
      vertex 1.0074864225461293 11.189032958342025 3.2
    endloop
  endfacet
  facet normal -0.05994328336231997 0.6086143695703294 0.7911986804414267
    outer loop
      vertex 1.3605104197584683 10.70126147548831 3.6400000000000006
      vertex 1.5 11.287 3.2
      vertex 1.2489187555652428 11.262270655878957 3.2
    endloop
  endfacet
  facet normal 0 0 1
    outer loop
      vertex 1.2263813458589607 9.33942613425443 3.6400000000000006
      vertex 1.2263813458589607 10.66057386574557 3.6400000000000006
      vertex 1.1027672833909845 10.59450077279632 3.6400000000000006
    endloop
  endfacet
  facet normal -0.17752626332392044 0.5852256606626125 0.7911986804414267
    outer loop
      vertex 1.2263813458589607 10.66057386574557 3.6400000000000006
      vertex 1.3605104197584683 10.70126147548831 3.6400000000000006
      vertex 1.2489187555652428 11.262270655878957 3.2
    endloop
  endfacet
  facet normal 0 0 1
    outer loop
      vertex 1.3605104197584683 9.29873852451169 3.6400000000000006
      vertex 1.3605104197584683 10.70126147548831 3.6400000000000006
      vertex 1.2263813458589607 10.66057386574557 3.6400000000000006
    endloop
  endfacet
  facet normal 0 0 1
    outer loop
      vertex 1.5 9.285 3.6400000000000006
      vertex 1.5 10.715 3.6400000000000006
      vertex 1.3605104197584683 10.70126147548831 3.6400000000000006
    endloop
  endfacet
  facet normal -0.05994328336231309 0.6086143695703287 0.7911986804414279
    outer loop
      vertex 1.3605104197584683 10.70126147548831 3.6400000000000006
      vertex 1.5 10.715 3.6400000000000006
      vertex 1.5 11.287 3.2
    endloop
  endfacet
  facet normal 0.05994328336231981 0.6086143695703284 0.7911986804414275
    outer loop
      vertex 1.5 10.715 3.6400000000000006
      vertex 1.7510812444347572 11.262270655878957 3.2
      vertex 1.5 11.287 3.2
    endloop
  endfacet
  facet normal 0.17752626332392055 0.5852256606626124 0.7911986804414266
    outer loop
      vertex 1.6394895802415317 10.70126147548831 3.6400000000000006
      vertex 1.9925135774538707 11.189032958342025 3.2
      vertex 1.7510812444347572 11.262270655878957 3.2
    endloop
  endfacet
  facet normal 0 0 1
    outer loop
      vertex 1.6394895802415317 9.29873852451169 3.6400000000000006
      vertex 1.6394895802415317 10.70126147548831 3.6400000000000006
      vertex 1.5 10.715 3.6400000000000006
    endloop
  endfacet
  facet normal 0.05994328336231328 0.6086143695703307 0.7911986804414265
    outer loop
      vertex 1.5 10.715 3.6400000000000006
      vertex 1.6394895802415317 10.70126147548831 3.6400000000000006
      vertex 1.7510812444347572 11.262270655878957 3.2
    endloop
  endfacet
  facet normal 0 0 1
    outer loop
      vertex 1.7736186541410393 9.33942613425443 3.6400000000000006
      vertex 1.7736186541410393 10.66057386574557 3.6400000000000006
      vertex 1.6394895802415317 10.70126147548831 3.6400000000000006
    endloop
  endfacet
  facet normal 0 0 1
    outer loop
      vertex 1.8972327166090155 9.40549922720368 3.6400000000000006
      vertex 1.8972327166090155 10.59450077279632 3.6400000000000006
      vertex 1.7736186541410393 10.66057386574557 3.6400000000000006
    endloop
  endfacet
  facet normal 0.17752626332392044 0.5852256606626125 0.7911986804414266
    outer loop
      vertex 1.6394895802415317 10.70126147548831 3.6400000000000006
      vertex 1.7736186541410393 10.66057386574557 3.6400000000000006
      vertex 1.9925135774538707 11.189032958342025 3.2
    endloop
  endfacet
  facet normal 0.2882870085438577 0.5393470578139634 0.7911986804414268
    outer loop
      vertex 1.7736186541410393 10.66057386574557 3.6400000000000006
      vertex 2.215018889896228 11.070101391033376 3.2
      vertex 1.9925135774538707 11.189032958342025 3.2
    endloop
  endfacet
  facet normal 0.38796904569867263 0.4727416500028374 0.7911986804414275
    outer loop
      vertex 1.8972327166090155 10.59450077279632 3.6400000000000006
      vertex 2.410046427387087 10.910046427387087 3.2
      vertex 2.215018889896228 11.070101391033376 3.2
    endloop
  endfacet
  facet normal 0 0 1
    outer loop
      vertex 2.0055813485483815 9.494418651451618 3.6400000000000006
      vertex 2.0055813485483815 10.505581348548382 3.6400000000000006
      vertex 1.8972327166090155 10.59450077279632 3.6400000000000006
    endloop
  endfacet
  facet normal 0.2882870085438619 0.5393470578139599 0.7911986804414276
    outer loop
      vertex 1.8972327166090155 10.59450077279632 3.6400000000000006
      vertex 2.215018889896228 11.070101391033376 3.2
      vertex 1.7736186541410393 10.66057386574557 3.6400000000000006
    endloop
  endfacet
  facet normal 0.4727416500028372 0.3879690456986733 0.7911986804414273
    outer loop
      vertex 2.09450077279632 10.397232716609016 3.6400000000000006
      vertex 2.570101391033376 10.715018889896228 3.2
      vertex 2.0055813485483815 10.505581348548382 3.6400000000000006
    endloop
  endfacet
  facet normal 0 0 1
    outer loop
      vertex 2.09450077279632 9.602767283390984 3.6400000000000006
      vertex 2.09450077279632 10.397232716609016 3.6400000000000006
      vertex 2.0055813485483815 10.505581348548382 3.6400000000000006
    endloop
  endfacet
  facet normal 0 0 1
    outer loop
      vertex 2.16057386574557 9.726381345858961 3.6400000000000006
      vertex 2.16057386574557 10.273618654141039 3.6400000000000006
      vertex 2.09450077279632 10.397232716609016 3.6400000000000006
    endloop
  endfacet
  facet normal 0 0 1
    outer loop
      vertex 2.2012614754883097 9.860510419758468 3.6400000000000006
      vertex 2.2012614754883097 10.139489580241532 3.6400000000000006
      vertex 2.16057386574557 10.273618654141039 3.6400000000000006
    endloop
  endfacet
  facet normal 0 0 1
    outer loop
      vertex 2.2012614754883097 9.860510419758468 3.6400000000000006
      vertex 2.215 10 3.6400000000000006
      vertex 2.2012614754883097 10.139489580241532 3.6400000000000006
    endloop
  endfacet
  facet normal 0.38796904569867025 0.4727416500028405 0.7911986804414268
    outer loop
      vertex 1.8972327166090155 10.59450077279632 3.6400000000000006
      vertex 2.0055813485483815 10.505581348548382 3.6400000000000006
      vertex 2.410046427387087 10.910046427387087 3.2
    endloop
  endfacet
  facet normal 0.47274165000283674 0.38796904569867413 0.7911986804414272
    outer loop
      vertex 2.0055813485483815 10.505581348548382 3.6400000000000006
      vertex 2.570101391033376 10.715018889896228 3.2
      vertex 2.410046427387087 10.910046427387087 3.2
    endloop
  endfacet
  facet normal 0.5393470578139616 0.28828700854385914 0.7911986804414273
    outer loop
      vertex 2.09450077279632 10.397232716609016 3.6400000000000006
      vertex 2.6890329583420263 10.492513577453872 3.2
      vertex 2.570101391033376 10.715018889896228 3.2
    endloop
  endfacet
  facet normal 0.6086143695703292 0.059943283362316586 0.7911986804414274
    outer loop
      vertex 2.2012614754883097 10.139489580241532 3.6400000000000006
      vertex 2.787 10 3.2
      vertex 2.762270655878958 10.251081244434758 3.2
    endloop
  endfacet
  facet normal 0.585225660662612 0.17752626332391885 0.7911986804414275
    outer loop
      vertex 2.16057386574557 10.273618654141039 3.6400000000000006
      vertex 2.762270655878958 10.251081244434758 3.2
      vertex 2.6890329583420263 10.492513577453872 3.2
    endloop
  endfacet
  facet normal 0.5393470578139624 0.2882870085438568 0.7911986804414276
    outer loop
      vertex 2.16057386574557 10.273618654141039 3.6400000000000006
      vertex 2.6890329583420263 10.492513577453872 3.2
      vertex 2.09450077279632 10.397232716609016 3.6400000000000006
    endloop
  endfacet
  facet normal 0.5852256606626118 0.17752626332391946 0.7911986804414274
    outer loop
      vertex 2.2012614754883097 10.139489580241532 3.6400000000000006
      vertex 2.762270655878958 10.251081244434758 3.2
      vertex 2.16057386574557 10.273618654141039 3.6400000000000006
    endloop
  endfacet
  facet normal 0.6086143695703291 0.059943283362316725 0.7911986804414273
    outer loop
      vertex 2.215 10 3.6400000000000006
      vertex 2.787 10 3.2
      vertex 2.2012614754883097 10.139489580241532 3.6400000000000006
    endloop
  endfacet
  facet normal -0.585225660662612 -0.17752626332391885 0.7911986804414275
    outer loop
      vertex 3.83942613425443 9.726381345858961 3.6400000000000006
      vertex 3.237729344121042 9.748918755565242 3.2
      vertex 3.3109670416579737 9.507486422546128 3.2
    endloop
  endfacet
  facet normal -0.6086143695703292 -0.059943283362316586 0.7911986804414274
    outer loop
      vertex 3.7987385245116903 9.860510419758468 3.6400000000000006
      vertex 3.213 10 3.2
      vertex 3.237729344121042 9.748918755565242 3.2
    endloop
  endfacet
  facet normal -0.5393470578139616 -0.28828700854385914 0.7911986804414273
    outer loop
      vertex 3.90549922720368 9.602767283390984 3.6400000000000006
      vertex 3.3109670416579737 9.507486422546128 3.2
      vertex 3.429898608966624 9.284981110103772 3.2
    endloop
  endfacet
  facet normal -0.47274165000283674 -0.38796904569867413 0.7911986804414272
    outer loop
      vertex 3.9944186514516185 9.494418651451618 3.6400000000000006
      vertex 3.429898608966624 9.284981110103772 3.2
      vertex 3.589953572612913 9.089953572612913 3.2
    endloop
  endfacet
  facet normal -0.6086143695703291 -0.059943283362316725 0.7911986804414273
    outer loop
      vertex 3.7987385245116903 9.860510419758468 3.6400000000000006
      vertex 3.785 10 3.6400000000000006
      vertex 3.213 10 3.2
    endloop
  endfacet
  facet normal -0.5852256606626118 -0.17752626332391946 0.7911986804414274
    outer loop
      vertex 3.83942613425443 9.726381345858961 3.6400000000000006
      vertex 3.7987385245116903 9.860510419758468 3.6400000000000006
      vertex 3.237729344121042 9.748918755565242 3.2
    endloop
  endfacet
  facet normal -0.5393470578139624 -0.2882870085438568 0.7911986804414276
    outer loop
      vertex 3.90549922720368 9.602767283390984 3.6400000000000006
      vertex 3.83942613425443 9.726381345858961 3.6400000000000006
      vertex 3.3109670416579737 9.507486422546128 3.2
    endloop
  endfacet
  facet normal -0.38796904569867263 -0.4727416500028374 0.7911986804414275
    outer loop
      vertex 4.1027672833909845 9.40549922720368 3.6400000000000006
      vertex 3.589953572612913 9.089953572612913 3.2
      vertex 3.784981110103772 8.929898608966624 3.2
    endloop
  endfacet
  facet normal -0.28828700854385725 -0.5393470578139637 0.7911986804414267
    outer loop
      vertex 4.226381345858961 9.33942613425443 3.6400000000000006
      vertex 3.784981110103772 8.929898608966624 3.2
      vertex 4.00748642254613 8.810967041657975 3.2
    endloop
  endfacet
  facet normal -0.38796904569867025 -0.4727416500028405 0.7911986804414268
    outer loop
      vertex 3.9944186514516185 9.494418651451618 3.6400000000000006
      vertex 3.589953572612913 9.089953572612913 3.2
      vertex 4.1027672833909845 9.40549922720368 3.6400000000000006
    endloop
  endfacet
  facet normal -0.4727416500028372 -0.3879690456986733 0.7911986804414273
    outer loop
      vertex 3.9944186514516185 9.494418651451618 3.6400000000000006
      vertex 3.90549922720368 9.602767283390984 3.6400000000000006
      vertex 3.429898608966624 9.284981110103772 3.2
    endloop
  endfacet
  facet normal 0 0 1
    outer loop
      vertex 3.83942613425443 9.726381345858961 3.6400000000000006
      vertex 3.7987385245116903 10.139489580241532 3.6400000000000006
      vertex 3.7987385245116903 9.860510419758468 3.6400000000000006
    endloop
  endfacet
  facet normal 0 0 1
    outer loop
      vertex 3.90549922720368 9.602767283390984 3.6400000000000006
      vertex 3.83942613425443 10.273618654141039 3.6400000000000006
      vertex 3.83942613425443 9.726381345858961 3.6400000000000006
    endloop
  endfacet
  facet normal 0 0 1
    outer loop
      vertex 3.9944186514516185 9.494418651451618 3.6400000000000006
      vertex 3.90549922720368 10.397232716609016 3.6400000000000006
      vertex 3.90549922720368 9.602767283390984 3.6400000000000006
    endloop
  endfacet
  facet normal -0.2882870085438615 -0.5393470578139601 0.7911986804414275
    outer loop
      vertex 4.226381345858961 9.33942613425443 3.6400000000000006
      vertex 4.1027672833909845 9.40549922720368 3.6400000000000006
      vertex 3.784981110103772 8.929898608966624 3.2
    endloop
  endfacet
  facet normal 0 0 1
    outer loop
      vertex 3.9944186514516185 9.494418651451618 3.6400000000000006
      vertex 4.1027672833909845 9.40549922720368 3.6400000000000006
      vertex 3.9944186514516185 10.505581348548382 3.6400000000000006
    endloop
  endfacet
  facet normal -0.17752626332392069 -0.5852256606626124 0.7911986804414266
    outer loop
      vertex 4.3605104197584685 9.29873852451169 3.6400000000000006
      vertex 4.00748642254613 8.810967041657975 3.2
      vertex 4.248918755565243 8.737729344121043 3.2
    endloop
  endfacet
  facet normal -0.05994328336231987 -0.6086143695703284 0.7911986804414276
    outer loop
      vertex 4.5 9.285 3.6400000000000006
      vertex 4.248918755565243 8.737729344121043 3.2
      vertex 4.5 8.713 3.2
    endloop
  endfacet
  facet normal -0.17752626332392044 -0.5852256606626125 0.7911986804414266
    outer loop
      vertex 4.226381345858961 9.33942613425443 3.6400000000000006
      vertex 4.00748642254613 8.810967041657975 3.2
      vertex 4.3605104197584685 9.29873852451169 3.6400000000000006
    endloop
  endfacet
  facet normal 0 0 1
    outer loop
      vertex 4.226381345858961 9.33942613425443 3.6400000000000006
      vertex 4.1027672833909845 10.59450077279632 3.6400000000000006
      vertex 4.1027672833909845 9.40549922720368 3.6400000000000006
    endloop
  endfacet
  facet normal 0 0 1
    outer loop
      vertex 4.226381345858961 9.33942613425443 3.6400000000000006
      vertex 4.3605104197584685 9.29873852451169 3.6400000000000006
      vertex 4.226381345858961 10.66057386574557 3.6400000000000006
    endloop
  endfacet
  facet normal -0.05994328336231336 -0.6086143695703304 0.7911986804414265
    outer loop
      vertex 4.3605104197584685 9.29873852451169 3.6400000000000006
      vertex 4.248918755565243 8.737729344121043 3.2
      vertex 4.5 9.285 3.6400000000000006
    endloop
  endfacet
  facet normal 0 0 1
    outer loop
      vertex 4.3605104197584685 9.29873852451169 3.6400000000000006
      vertex 4.5 9.285 3.6400000000000006
      vertex 4.3605104197584685 10.70126147548831 3.6400000000000006
    endloop
  endfacet
  facet normal 0.05994328336232003 -0.6086143695703294 0.7911986804414267
    outer loop
      vertex 4.6394895802415315 9.29873852451169 3.6400000000000006
      vertex 4.5 8.713 3.2
      vertex 4.751081244434757 8.737729344121043 3.2
    endloop
  endfacet
  facet normal 0.17752626332392074 -0.5852256606626126 0.7911986804414267
    outer loop
      vertex 4.773618654141039 9.33942613425443 3.6400000000000006
      vertex 4.751081244434757 8.737729344121043 3.2
      vertex 4.99251357745387 8.810967041657975 3.2
    endloop
  endfacet
  facet normal 0.059943283362313186 -0.6086143695703288 0.7911986804414279
    outer loop
      vertex 4.5 9.285 3.6400000000000006
      vertex 4.5 8.713 3.2
      vertex 4.6394895802415315 9.29873852451169 3.6400000000000006
    endloop
  endfacet
  facet normal 0 0 1
    outer loop
      vertex 4.5 9.285 3.6400000000000006
      vertex 4.6394895802415315 9.29873852451169 3.6400000000000006
      vertex 4.5 10.715 3.6400000000000006
    endloop
  endfacet
  facet normal 0 0 1
    outer loop
      vertex 4.6394895802415315 9.29873852451169 3.6400000000000006
      vertex 4.773618654141039 9.33942613425443 3.6400000000000006
      vertex 4.6394895802415315 10.70126147548831 3.6400000000000006
    endloop
  endfacet
  facet normal 0.17752626332392044 -0.5852256606626125 0.7911986804414267
    outer loop
      vertex 4.6394895802415315 9.29873852451169 3.6400000000000006
      vertex 4.751081244434757 8.737729344121043 3.2
      vertex 4.773618654141039 9.33942613425443 3.6400000000000006
    endloop
  endfacet
  facet normal 0 0 1
    outer loop
      vertex 4.773618654141039 9.33942613425443 3.6400000000000006
      vertex 4.8972327166090155 9.40549922720368 3.6400000000000006
      vertex 4.773618654141039 10.66057386574557 3.6400000000000006
    endloop
  endfacet
  facet normal 0.28828700854385747 -0.5393470578139627 0.7911986804414273
    outer loop
      vertex 4.8972327166090155 9.40549922720368 3.6400000000000006
      vertex 4.99251357745387 8.810967041657975 3.2
      vertex 5.2150188898962275 8.929898608966624 3.2
    endloop
  endfacet
  facet normal 0.3879690456986768 -0.4727416500028362 0.7911986804414262
    outer loop
      vertex 5.0055813485483815 9.494418651451618 3.6400000000000006
      vertex 5.2150188898962275 8.929898608966624 3.2
      vertex 5.3 8.999640803649866 3.2
    endloop
  endfacet
  facet normal 0.3879690456986705 -0.4727416500028404 0.7911986804414267
    outer loop
      vertex 5.419238815542512 9.080761184457488 3.1900000000000004
      vertex 5.0055813485483815 9.494418651451618 3.6400000000000006
      vertex 5.3 8.999640803649866 3.2
    endloop
  endfacet
  facet normal 0.28828700854386224 -0.5393470578139614 0.7911986804414264
    outer loop
      vertex 4.773618654141039 9.33942613425443 3.6400000000000006
      vertex 4.99251357745387 8.810967041657975 3.2
      vertex 4.8972327166090155 9.40549922720368 3.6400000000000006
    endloop
  endfacet
  facet normal 0.38796904569866963 -0.4727416500028398 0.7911986804414274
    outer loop
      vertex 4.8972327166090155 9.40549922720368 3.6400000000000006
      vertex 5.2150188898962275 8.929898608966624 3.2
      vertex 5.0055813485483815 9.494418651451618 3.6400000000000006
    endloop
  endfacet
  facet normal 0 0 1
    outer loop
      vertex 4.8972327166090155 9.40549922720368 3.6400000000000006
      vertex 5.0055813485483815 9.494418651451618 3.6400000000000006
      vertex 4.8972327166090155 10.59450077279632 3.6400000000000006
    endloop
  endfacet
  facet normal 0 0 1
    outer loop
      vertex 5.0055813485483815 9.494418651451618 3.6400000000000006
      vertex 5.09450077279632 9.602767283390984 3.6400000000000006
      vertex 5.0055813485483815 10.505581348548382 3.6400000000000006
    endloop
  endfacet
  facet normal 0.47274165000283647 -0.38796904569867474 0.7911986804414269
    outer loop
      vertex 5.419238815542512 9.080761184457488 3.1900000000000004
      vertex 5.09450077279632 9.602767283390984 3.6400000000000006
      vertex 5.0055813485483815 9.494418651451618 3.6400000000000006
    endloop
  endfacet
  facet normal 0 0 1
    outer loop
      vertex 5.09450077279632 9.602767283390984 3.6400000000000006
      vertex 5.16057386574557 9.726381345858961 3.6400000000000006
      vertex 5.09450077279632 10.397232716609016 3.6400000000000006
    endloop
  endfacet
  facet normal 0 0 1
    outer loop
      vertex 5.16057386574557 9.726381345858961 3.6400000000000006
      vertex 5.20126147548831 9.860510419758468 3.6400000000000006
      vertex 5.16057386574557 10.273618654141039 3.6400000000000006
    endloop
  endfacet
  facet normal 0.38796904569865287 -0.4727416500028112 0.7911986804414528
    outer loop
      vertex 5.419238815542512 9.080761184457488 3.1900000000000004
      vertex 5.3 8.999640803649866 3.2
      vertex 5.31 8.991111205406504 3.1900000000000004
    endloop
  endfacet
  facet normal 0.4727416500028375 -0.3879690456986738 0.7911986804414268
    outer loop
      vertex 5.419238815542512 9.080761184457488 3.1900000000000004
      vertex 5.580910495993309 9.277758697074518 3.1900000000000004
      vertex 5.09450077279632 9.602767283390984 3.6400000000000006
    endloop
  endfacet
  facet normal 0 0 -1
    outer loop
      vertex 5.419238815542512 9.080761184457488 3.1900000000000004
      vertex 5.31 8.991111205406504 3.1900000000000004
      vertex 5.419238815542512 10.919238815542512 3.1900000000000004
    endloop
  endfacet
  facet normal 0 0 -1
    outer loop
      vertex 5.419238815542512 9.080761184457488 3.1900000000000004
      vertex 5.580910495993309 10.722241302925482 3.1900000000000004
      vertex 5.580910495993309 9.277758697074518 3.1900000000000004
    endloop
  endfacet
  facet normal 0.5393470578139616 -0.2882870085438588 0.7911986804414276
    outer loop
      vertex 5.580910495993309 9.277758697074518 3.1900000000000004
      vertex 5.701043392264673 9.502511537925383 3.1900000000000004
      vertex 5.16057386574557 9.726381345858961 3.6400000000000006
    endloop
  endfacet
  facet normal 0.5852256606626121 -0.17752626332391924 0.7911986804414273
    outer loop
      vertex 5.701043392264673 9.502511537925383 3.1900000000000004
      vertex 5.775020864524199 9.746382581379033 3.1900000000000004
      vertex 5.20126147548831 9.860510419758468 3.6400000000000006
    endloop
  endfacet
  facet normal 0.608614369570329 -0.05994328336231741 0.7911986804414275
    outer loop
      vertex 5.775020864524199 9.746382581379033 3.1900000000000004
      vertex 5.8 10 3.1900000000000004
      vertex 5.215 10 3.6400000000000006
    endloop
  endfacet
  facet normal 0.5393470578139652 -0.2882870085438546 0.7911986804414267
    outer loop
      vertex 5.580910495993309 9.277758697074518 3.1900000000000004
      vertex 5.16057386574557 9.726381345858961 3.6400000000000006
      vertex 5.09450077279632 9.602767283390984 3.6400000000000006
    endloop
  endfacet
  facet normal 0.5852256606626112 -0.1775262633239212 0.7911986804414276
    outer loop
      vertex 5.701043392264673 9.502511537925383 3.1900000000000004
      vertex 5.20126147548831 9.860510419758468 3.6400000000000006
      vertex 5.16057386574557 9.726381345858961 3.6400000000000006
    endloop
  endfacet
  facet normal 0.6086143695703292 -0.05994328336231684 0.7911986804414273
    outer loop
      vertex 5.775020864524199 9.746382581379033 3.1900000000000004
      vertex 5.215 10 3.6400000000000006
      vertex 5.20126147548831 9.860510419758468 3.6400000000000006
    endloop
  endfacet
  facet normal 0 0 -1
    outer loop
      vertex 5.580910495993309 9.277758697074518 3.1900000000000004
      vertex 5.701043392264673 10.497488462074617 3.1900000000000004
      vertex 5.701043392264673 9.502511537925383 3.1900000000000004
    endloop
  endfacet
  facet normal 0 0 -1
    outer loop
      vertex 5.701043392264673 9.502511537925383 3.1900000000000004
      vertex 5.775020864524199 10.253617418620967 3.1900000000000004
      vertex 5.775020864524199 9.746382581379033 3.1900000000000004
    endloop
  endfacet
  facet normal -0.6086143695703292 0.059943283362316656 0.7911986804414274
    outer loop
      vertex 3.785 10 3.6400000000000006
      vertex 3.237729344121042 10.251081244434758 3.2
      vertex 3.213 10 3.2
    endloop
  endfacet
  facet normal -0.585225660662612 0.17752626332391877 0.7911986804414274
    outer loop
      vertex 3.7987385245116903 10.139489580241532 3.6400000000000006
      vertex 3.3109670416579737 10.492513577453872 3.2
      vertex 3.237729344121042 10.251081244434758 3.2
    endloop
  endfacet
  facet normal -0.5393470578139615 0.288287008543859 0.7911986804414276
    outer loop
      vertex 3.83942613425443 10.273618654141039 3.6400000000000006
      vertex 3.429898608966624 10.715018889896228 3.2
      vertex 3.3109670416579737 10.492513577453872 3.2
    endloop
  endfacet
  facet normal -0.47274165000283663 0.38796904569867396 0.7911986804414272
    outer loop
      vertex 3.90549922720368 10.397232716609016 3.6400000000000006
      vertex 3.589953572612913 10.910046427387087 3.2
      vertex 3.429898608966624 10.715018889896228 3.2
    endloop
  endfacet
  facet normal -0.6086143695703291 0.059943283362316725 0.7911986804414273
    outer loop
      vertex 3.785 10 3.6400000000000006
      vertex 3.7987385245116903 10.139489580241532 3.6400000000000006
      vertex 3.237729344121042 10.251081244434758 3.2
    endloop
  endfacet
  facet normal -0.5852256606626116 0.17752626332391938 0.7911986804414275
    outer loop
      vertex 3.7987385245116903 10.139489580241532 3.6400000000000006
      vertex 3.83942613425443 10.273618654141039 3.6400000000000006
      vertex 3.3109670416579737 10.492513577453872 3.2
    endloop
  endfacet
  facet normal -0.539347057813963 0.28828700854385714 0.7911986804414272
    outer loop
      vertex 3.83942613425443 10.273618654141039 3.6400000000000006
      vertex 3.90549922720368 10.397232716609016 3.6400000000000006
      vertex 3.429898608966624 10.715018889896228 3.2
    endloop
  endfacet
  facet normal -0.3879690456986731 0.47274165000283785 0.7911986804414269
    outer loop
      vertex 3.9944186514516185 10.505581348548382 3.6400000000000006
      vertex 3.784981110103772 11.070101391033376 3.2
      vertex 3.589953572612913 10.910046427387087 3.2
    endloop
  endfacet
  facet normal -0.28828700854385697 0.5393470578139629 0.7911986804414273
    outer loop
      vertex 4.1027672833909845 10.59450077279632 3.6400000000000006
      vertex 4.00748642254613 11.189032958342025 3.2
      vertex 3.784981110103772 11.070101391033376 3.2
    endloop
  endfacet
  facet normal -0.47274165000283735 0.3879690456986734 0.7911986804414269
    outer loop
      vertex 3.90549922720368 10.397232716609016 3.6400000000000006
      vertex 3.9944186514516185 10.505581348548382 3.6400000000000006
      vertex 3.589953572612913 10.910046427387087 3.2
    endloop
  endfacet
  facet normal 0 0 1
    outer loop
      vertex 3.7987385245116903 9.860510419758468 3.6400000000000006
      vertex 3.7987385245116903 10.139489580241532 3.6400000000000006
      vertex 3.785 10 3.6400000000000006
    endloop
  endfacet
  facet normal 0 0 1
    outer loop
      vertex 3.83942613425443 9.726381345858961 3.6400000000000006
      vertex 3.83942613425443 10.273618654141039 3.6400000000000006
      vertex 3.7987385245116903 10.139489580241532 3.6400000000000006
    endloop
  endfacet
  facet normal 0 0 1
    outer loop
      vertex 3.90549922720368 9.602767283390984 3.6400000000000006
      vertex 3.90549922720368 10.397232716609016 3.6400000000000006
      vertex 3.83942613425443 10.273618654141039 3.6400000000000006
    endloop
  endfacet
  facet normal 0 0 1
    outer loop
      vertex 3.9944186514516185 9.494418651451618 3.6400000000000006
      vertex 3.9944186514516185 10.505581348548382 3.6400000000000006
      vertex 3.90549922720368 10.397232716609016 3.6400000000000006
    endloop
  endfacet
  facet normal 0 0 1
    outer loop
      vertex 4.1027672833909845 9.40549922720368 3.6400000000000006
      vertex 4.1027672833909845 10.59450077279632 3.6400000000000006
      vertex 3.9944186514516185 10.505581348548382 3.6400000000000006
    endloop
  endfacet
  facet normal -0.3879690456986695 0.4727416500028397 0.7911986804414276
    outer loop
      vertex 3.9944186514516185 10.505581348548382 3.6400000000000006
      vertex 4.1027672833909845 10.59450077279632 3.6400000000000006
      vertex 3.784981110103772 11.070101391033376 3.2
    endloop
  endfacet
  facet normal -0.28828700854386224 0.5393470578139614 0.7911986804414264
    outer loop
      vertex 4.1027672833909845 10.59450077279632 3.6400000000000006
      vertex 4.226381345858961 10.66057386574557 3.6400000000000006
      vertex 4.00748642254613 11.189032958342025 3.2
    endloop
  endfacet
  facet normal -0.17752626332392074 0.5852256606626126 0.7911986804414267
    outer loop
      vertex 4.226381345858961 10.66057386574557 3.6400000000000006
      vertex 4.248918755565243 11.262270655878957 3.2
      vertex 4.00748642254613 11.189032958342025 3.2
    endloop
  endfacet
  facet normal -0.05994328336232003 0.6086143695703294 0.7911986804414267
    outer loop
      vertex 4.3605104197584685 10.70126147548831 3.6400000000000006
      vertex 4.5 11.287 3.2
      vertex 4.248918755565243 11.262270655878957 3.2
    endloop
  endfacet
  facet normal 0 0 1
    outer loop
      vertex 4.226381345858961 9.33942613425443 3.6400000000000006
      vertex 4.226381345858961 10.66057386574557 3.6400000000000006
      vertex 4.1027672833909845 10.59450077279632 3.6400000000000006
    endloop
  endfacet
  facet normal -0.17752626332392044 0.5852256606626125 0.7911986804414267
    outer loop
      vertex 4.226381345858961 10.66057386574557 3.6400000000000006
      vertex 4.3605104197584685 10.70126147548831 3.6400000000000006
      vertex 4.248918755565243 11.262270655878957 3.2
    endloop
  endfacet
  facet normal 0 0 1
    outer loop
      vertex 4.3605104197584685 9.29873852451169 3.6400000000000006
      vertex 4.3605104197584685 10.70126147548831 3.6400000000000006
      vertex 4.226381345858961 10.66057386574557 3.6400000000000006
    endloop
  endfacet
  facet normal 0 0 1
    outer loop
      vertex 4.5 9.285 3.6400000000000006
      vertex 4.5 10.715 3.6400000000000006
      vertex 4.3605104197584685 10.70126147548831 3.6400000000000006
    endloop
  endfacet
  facet normal -0.059943283362313186 0.6086143695703288 0.7911986804414279
    outer loop
      vertex 4.3605104197584685 10.70126147548831 3.6400000000000006
      vertex 4.5 10.715 3.6400000000000006
      vertex 4.5 11.287 3.2
    endloop
  endfacet
  facet normal 0.05994328336231987 0.6086143695703284 0.7911986804414276
    outer loop
      vertex 4.5 10.715 3.6400000000000006
      vertex 4.751081244434757 11.262270655878957 3.2
      vertex 4.5 11.287 3.2
    endloop
  endfacet
  facet normal 0.17752626332392069 0.5852256606626124 0.7911986804414266
    outer loop
      vertex 4.6394895802415315 10.70126147548831 3.6400000000000006
      vertex 4.99251357745387 11.189032958342025 3.2
      vertex 4.751081244434757 11.262270655878957 3.2
    endloop
  endfacet
  facet normal 0 0 1
    outer loop
      vertex 4.6394895802415315 9.29873852451169 3.6400000000000006
      vertex 4.6394895802415315 10.70126147548831 3.6400000000000006
      vertex 4.5 10.715 3.6400000000000006
    endloop
  endfacet
  facet normal 0.05994328336231337 0.6086143695703305 0.7911986804414265
    outer loop
      vertex 4.5 10.715 3.6400000000000006
      vertex 4.6394895802415315 10.70126147548831 3.6400000000000006
      vertex 4.751081244434757 11.262270655878957 3.2
    endloop
  endfacet
  facet normal 0 0 1
    outer loop
      vertex 4.773618654141039 9.33942613425443 3.6400000000000006
      vertex 4.773618654141039 10.66057386574557 3.6400000000000006
      vertex 4.6394895802415315 10.70126147548831 3.6400000000000006
    endloop
  endfacet
  facet normal 0 0 1
    outer loop
      vertex 4.8972327166090155 9.40549922720368 3.6400000000000006
      vertex 4.8972327166090155 10.59450077279632 3.6400000000000006
      vertex 4.773618654141039 10.66057386574557 3.6400000000000006
    endloop
  endfacet
  facet normal 0.17752626332392044 0.5852256606626125 0.7911986804414266
    outer loop
      vertex 4.6394895802415315 10.70126147548831 3.6400000000000006
      vertex 4.773618654141039 10.66057386574557 3.6400000000000006
      vertex 4.99251357745387 11.189032958342025 3.2
    endloop
  endfacet
  facet normal 0.28828700854385775 0.5393470578139635 0.7911986804414266
    outer loop
      vertex 4.773618654141039 10.66057386574557 3.6400000000000006
      vertex 5.2150188898962275 11.070101391033376 3.2
      vertex 4.99251357745387 11.189032958342025 3.2
    endloop
  endfacet
  facet normal 0.3879690456986759 0.4727416500028352 0.791198680441427
    outer loop
      vertex 4.8972327166090155 10.59450077279632 3.6400000000000006
      vertex 5.3 11.000359196350134 3.2
      vertex 5.2150188898962275 11.070101391033376 3.2
    endloop
  endfacet
  facet normal 0.3879690456986705 0.4727416500028404 0.7911986804414267
    outer loop
      vertex 5.419238815542512 10.919238815542512 3.1900000000000004
      vertex 5.3 11.000359196350134 3.2
      vertex 5.0055813485483815 10.505581348548382 3.6400000000000006
    endloop
  endfacet
  facet normal 0 0 1
    outer loop
      vertex 5.0055813485483815 9.494418651451618 3.6400000000000006
      vertex 5.0055813485483815 10.505581348548382 3.6400000000000006
      vertex 4.8972327166090155 10.59450077279632 3.6400000000000006
    endloop
  endfacet
  facet normal 0.28828700854386163 0.5393470578139603 0.7911986804414274
    outer loop
      vertex 4.8972327166090155 10.59450077279632 3.6400000000000006
      vertex 5.2150188898962275 11.070101391033376 3.2
      vertex 4.773618654141039 10.66057386574557 3.6400000000000006
    endloop
  endfacet
  facet normal 0.47274165000283647 0.3879690456986745 0.791198680441427
    outer loop
      vertex 5.419238815542512 10.919238815542512 3.1900000000000004
      vertex 5.0055813485483815 10.505581348548382 3.6400000000000006
      vertex 5.09450077279632 10.397232716609016 3.6400000000000006
    endloop
  endfacet
  facet normal 0 0 1
    outer loop
      vertex 5.09450077279632 9.602767283390984 3.6400000000000006
      vertex 5.09450077279632 10.397232716609016 3.6400000000000006
      vertex 5.0055813485483815 10.505581348548382 3.6400000000000006
    endloop
  endfacet
  facet normal 0 0 1
    outer loop
      vertex 5.16057386574557 9.726381345858961 3.6400000000000006
      vertex 5.16057386574557 10.273618654141039 3.6400000000000006
      vertex 5.09450077279632 10.397232716609016 3.6400000000000006
    endloop
  endfacet
  facet normal 0 0 1
    outer loop
      vertex 5.20126147548831 9.860510419758468 3.6400000000000006
      vertex 5.20126147548831 10.139489580241532 3.6400000000000006
      vertex 5.16057386574557 10.273618654141039 3.6400000000000006
    endloop
  endfacet
  facet normal 0 0 1
    outer loop
      vertex 5.20126147548831 9.860510419758468 3.6400000000000006
      vertex 5.215 10 3.6400000000000006
      vertex 5.20126147548831 10.139489580241532 3.6400000000000006
    endloop
  endfacet
  facet normal 0.38796904569867025 0.4727416500028405 0.7911986804414267
    outer loop
      vertex 4.8972327166090155 10.59450077279632 3.6400000000000006
      vertex 5.0055813485483815 10.505581348548382 3.6400000000000006
      vertex 5.3 11.000359196350134 3.2
    endloop
  endfacet
  facet normal 0 0 -1
    outer loop
      vertex 5.419238815542512 10.919238815542512 3.1900000000000004
      vertex 5.31 8.991111205406504 3.1900000000000004
      vertex 5.31 11.008888794593496 3.1900000000000004
    endloop
  endfacet
  facet normal 0.38796904569865304 0.4727416500028114 0.7911986804414527
    outer loop
      vertex 5.419238815542512 10.919238815542512 3.1900000000000004
      vertex 5.31 11.008888794593496 3.1900000000000004
      vertex 5.3 11.000359196350134 3.2
    endloop
  endfacet
  facet normal 0.47274165000283747 0.38796904569867374 0.7911986804414269
    outer loop
      vertex 5.419238815542512 10.919238815542512 3.1900000000000004
      vertex 5.09450077279632 10.397232716609016 3.6400000000000006
      vertex 5.580910495993309 10.722241302925482 3.1900000000000004
    endloop
  endfacet
  facet normal 0 0 -1
    outer loop
      vertex 5.419238815542512 9.080761184457488 3.1900000000000004
      vertex 5.419238815542512 10.919238815542512 3.1900000000000004
      vertex 5.580910495993309 10.722241302925482 3.1900000000000004
    endloop
  endfacet
  facet normal 0 0 -1
    outer loop
      vertex 5.580910495993309 9.277758697074518 3.1900000000000004
      vertex 5.580910495993309 10.722241302925482 3.1900000000000004
      vertex 5.701043392264673 10.497488462074617 3.1900000000000004
    endloop
  endfacet
  facet normal 0.5393470578139616 0.2882870085438588 0.7911986804414276
    outer loop
      vertex 5.701043392264673 10.497488462074617 3.1900000000000004
      vertex 5.580910495993309 10.722241302925482 3.1900000000000004
      vertex 5.16057386574557 10.273618654141039 3.6400000000000006
    endloop
  endfacet
  facet normal 0.5852256606626121 0.17752626332391924 0.7911986804414273
    outer loop
      vertex 5.775020864524199 10.253617418620967 3.1900000000000004
      vertex 5.701043392264673 10.497488462074617 3.1900000000000004
      vertex 5.20126147548831 10.139489580241532 3.6400000000000006
    endloop
  endfacet
  facet normal 0.608614369570329 0.05994328336231741 0.7911986804414275
    outer loop
      vertex 5.8 10 3.1900000000000004
      vertex 5.775020864524199 10.253617418620967 3.1900000000000004
      vertex 5.215 10 3.6400000000000006
    endloop
  endfacet
  facet normal 0.5393470578139652 0.2882870085438546 0.7911986804414267
    outer loop
      vertex 5.580910495993309 10.722241302925482 3.1900000000000004
      vertex 5.09450077279632 10.397232716609016 3.6400000000000006
      vertex 5.16057386574557 10.273618654141039 3.6400000000000006
    endloop
  endfacet
  facet normal 0.585225660662611 0.177526263323921 0.7911986804414276
    outer loop
      vertex 5.701043392264673 10.497488462074617 3.1900000000000004
      vertex 5.16057386574557 10.273618654141039 3.6400000000000006
      vertex 5.20126147548831 10.139489580241532 3.6400000000000006
    endloop
  endfacet
  facet normal 0.6086143695703291 0.059943283362316926 0.7911986804414273
    outer loop
      vertex 5.775020864524199 10.253617418620967 3.1900000000000004
      vertex 5.20126147548831 10.139489580241532 3.6400000000000006
      vertex 5.215 10 3.6400000000000006
    endloop
  endfacet
  facet normal 0 0 -1
    outer loop
      vertex 5.701043392264673 9.502511537925383 3.1900000000000004
      vertex 5.701043392264673 10.497488462074617 3.1900000000000004
      vertex 5.775020864524199 10.253617418620967 3.1900000000000004
    endloop
  endfacet
  facet normal 0 0 -1
    outer loop
      vertex 5.775020864524199 9.746382581379033 3.1900000000000004
      vertex 5.775020864524199 10.253617418620967 3.1900000000000004
      vertex 5.8 10 3.1900000000000004
    endloop
  endfacet
endsolid OpenSCAD_Model
